<svg width="37" height="36" viewBox="0 0 37 36" fill="none" xmlns="http://www.w3.org/2000/svg">
<path d="M18.002 0C8.06177 0 0.00195312 8.05982 0.00195312 18C0.00195312 27.9402 8.06177 36 18.002 36C27.9421 36 36.002 27.9402 36.002 18C36.002 8.05982 27.9421 0 18.002 0ZM26.6524 13.5683C26.6645 13.7571 26.6645 13.954 26.6645 14.1469C26.6645 20.0451 22.1725 26.8393 13.964 26.8393C11.4328 26.8393 9.08633 26.104 7.10954 24.8384C7.47115 24.8786 7.81669 24.8946 8.18633 24.8946C10.2756 24.8946 12.1961 24.1875 13.727 22.9902C11.7662 22.95 10.1189 21.6643 9.55642 19.8964C10.2435 19.9969 10.8622 19.9969 11.5694 19.8161C10.5598 19.611 9.65234 19.0627 9.00121 18.2643C8.35009 17.466 7.99543 16.4668 7.99749 15.4366V15.3804C8.58811 15.7138 9.2832 15.9187 10.0104 15.9469C9.39909 15.5394 8.89772 14.9875 8.55079 14.3399C8.20386 13.6923 8.02209 12.969 8.0216 12.2344C8.0216 11.4027 8.23856 10.6433 8.62829 9.98438C9.74888 11.3639 11.1472 12.4921 12.7324 13.2958C14.3176 14.0994 16.0541 14.5605 17.8292 14.6491C17.1984 11.6156 19.4645 9.16071 22.1886 9.16071C23.4743 9.16071 24.6314 9.69911 25.447 10.567C26.4555 10.3781 27.4198 10.0004 28.2796 9.4942C27.9461 10.5268 27.247 11.3987 26.3189 11.9491C27.2189 11.8527 28.0868 11.6036 28.8903 11.254C28.2836 12.146 27.5243 12.9375 26.6524 13.5683Z" fill="white"/>
</svg>
