<svg width="37" height="36" viewBox="0 0 37 36" fill="none" xmlns="http://www.w3.org/2000/svg">
<circle cx="18.002" cy="18" r="18" fill="white"/>
<path d="M25.6558 13.1624C22.9632 8.99986 17.4659 7.76235 13.2026 10.3499C9.05156 12.9374 7.70527 18.5624 10.3978 22.725L10.6222 23.0625L9.7247 26.4375L13.0904 25.5375L13.427 25.7625C14.8855 26.55 16.4562 27 18.0268 27C19.7097 27 21.3925 26.55 22.851 25.65C27.0021 22.95 28.2362 17.4374 25.6558 13.1624ZM23.2998 21.825C22.851 22.5 22.2901 22.95 21.5047 23.0625C21.056 23.0625 20.495 23.2875 18.2512 22.3875C16.344 21.4875 14.7733 20.0249 13.6514 18.3374C12.9782 17.5499 12.6417 16.5374 12.5295 15.5249C12.5295 14.6249 12.866 13.8374 13.427 13.2749C13.6514 13.0499 13.8758 12.9374 14.1001 12.9374H14.6611C14.8855 12.9374 15.1099 12.9374 15.2221 13.3874C15.4464 13.9499 16.0074 15.2999 16.0074 15.4124C16.1196 15.5249 16.1196 15.7499 16.0074 15.8624C16.1196 16.0874 16.0074 16.3124 15.8952 16.4249C15.783 16.5374 15.6708 16.7624 15.5586 16.8749C15.3342 16.9874 15.2221 17.2124 15.3342 17.4374C15.783 18.1124 16.344 18.7874 16.9049 19.3499C17.5781 19.9124 18.2512 20.3624 19.0365 20.7C19.2609 20.8125 19.4853 20.8125 19.5975 20.5875C19.7097 20.3624 20.2706 19.7999 20.495 19.5749C20.7194 19.3499 20.8316 19.3499 21.056 19.4624L22.851 20.3624C23.0754 20.475 23.2998 20.5875 23.412 20.7C23.5242 21.0375 23.5242 21.4875 23.2998 21.825Z" fill="#070917"/>
</svg>
