<svg width="94" height="98" viewBox="0 0 94 98" fill="none" xmlns="http://www.w3.org/2000/svg">
<path d="M92.9343 24.0294C92.9343 23.9267 92.9343 23.9267 92.9343 23.824C92.8316 23.6187 92.8316 23.4133 92.7289 23.2079V23.1052C92.6262 22.8998 92.4208 22.6945 92.3181 22.5918L92.2155 22.4891C92.1128 22.3864 91.9074 22.2837 91.8047 22.181L91.702 22.0783H91.5993L91.4966 21.9756L47.8535 0.30807C47.0319 -0.10269 46.005 -0.10269 45.0808 0.30807L30.3962 7.59905L74.2447 30.0881L74.3474 30.1908C74.4501 30.1908 74.4501 30.2935 74.5528 30.2935C74.6555 30.3962 74.6555 30.4989 74.7582 30.6016C74.7582 30.7043 74.7582 30.7043 74.7582 30.807V30.9096V54.7337C74.7582 55.1444 74.5528 55.4525 74.2447 55.6579L65.4134 60.2789C64.9 60.587 64.2838 60.3816 63.9758 59.8682C63.8731 59.7655 63.8731 59.5601 63.8731 59.3547V36.0441L19.5111 13.1443L19.4084 13.0416L1.64304 21.8729L1.54035 21.9756H1.43766L1.33497 22.0783C1.23228 22.181 1.0269 22.2837 0.924208 22.3864L0.821518 22.4891C0.616139 22.6945 0.513449 22.8998 0.308069 23.1052V23.2079C0.20538 23.4133 0.10269 23.6187 0.10269 23.824C0.10269 23.9267 0.10269 23.9267 0.10269 24.0294C0.10269 24.2348 0 24.3375 0 24.5429V24.6456V72.499C0 73.6286 0.616139 74.7582 1.74573 75.2717L44.9781 96.8365C45.5943 97.1446 46.3131 97.2473 47.0319 97.0419L47.2373 96.9392C47.4427 96.9392 47.5454 96.8365 47.7508 96.7338L91.2913 75.169C92.3181 74.6555 93.037 73.6286 93.037 72.3963V24.6456V24.5429C92.9343 24.3375 92.9343 24.2348 92.9343 24.0294Z" fill="#F4F4F4"/>
</svg>
