<svg width="23" height="22" viewBox="0 0 23 22" fill="none" xmlns="http://www.w3.org/2000/svg">
<path d="M22.94 8.31354C22.7894 7.84869 22.3764 7.51853 21.8876 7.47456L15.2492 6.87292L12.6242 0.740363C12.4307 0.290926 11.9899 0 11.5001 0C11.0103 0 10.5695 0.290926 10.376 0.741414L7.75096 6.87292L1.11149 7.47456C0.623654 7.51958 0.211626 7.84869 0.0601868 8.31354C-0.0912526 8.77839 0.0486051 9.28825 0.41764 9.60965L5.4355 14.0021L3.95585 20.5077C3.84758 20.9861 4.03359 21.4805 4.43122 21.7674C4.64496 21.9215 4.89502 22 5.14718 22C5.3646 22 5.58027 21.9415 5.77382 21.8259L11.5001 18.4099L17.2243 21.8259C17.6431 22.0774 18.1711 22.0545 18.5679 21.7674C18.9657 21.4796 19.1516 20.985 19.0433 20.5077L17.5636 14.0021L22.5815 9.61053C22.9505 9.28825 23.0914 8.77926 22.94 8.31354Z" fill="#FFC107"/>
</svg>
