<svg width="19" height="19" viewBox="0 0 19 19" fill="none" xmlns="http://www.w3.org/2000/svg">
<path d="M18.9504 7.17987C18.8261 6.77841 18.4848 6.49327 18.0811 6.4553L12.5972 5.9357L10.4287 0.639404C10.2688 0.251254 9.90467 0 9.50008 0C9.09549 0 8.73134 0.251254 8.57145 0.640312L6.40297 5.9357L0.918186 6.4553C0.515192 6.49418 0.174822 6.77841 0.0497195 7.17987C-0.0753826 7.58133 0.0401521 8.02167 0.345007 8.29925L4.49019 12.0927L3.26787 17.7112C3.17843 18.1243 3.33209 18.5513 3.66058 18.7991C3.83714 18.9322 4.04371 19 4.25202 19C4.43163 19 4.60979 18.9495 4.76968 18.8496L9.50008 15.8995L14.2287 18.8496C14.5748 19.0669 15.0109 19.047 15.3387 18.7991C15.6673 18.5506 15.8209 18.1234 15.7314 17.7112L14.5091 12.0927L18.6543 8.3C18.9591 8.02167 19.0755 7.58209 18.9504 7.17987Z" fill="#FFC107"/>
</svg>
