<svg width="26" height="34" viewBox="0 0 26 34" fill="none" xmlns="http://www.w3.org/2000/svg">
<path d="M24.1801 27.1449C23.9361 27.3858 23.655 27.5814 23.3444 27.7263L17.7096 30.356C16.6015 30.8731 15.2478 30.6762 14.3329 29.7611C13.4477 28.8759 13.2085 27.5189 13.7379 26.3843L16.3675 20.7493C16.5152 20.4329 16.7154 20.1472 16.9623 19.9002L25.4336 11.4289V2.98828C25.4336 1.34054 24.0931 0 22.4453 0H2.98828C1.34054 0 0 1.34054 0 2.98828V31.0117C0 32.6595 1.34054 34 2.98828 34H22.4453C24.0931 34 25.4336 32.6595 25.4336 31.0117V25.907L24.1801 27.1449ZM5.31257 6.44141H20.1876C20.7377 6.44141 21.1837 6.88739 21.1837 7.4375C21.1837 7.98761 20.7377 8.43359 20.1876 8.43359H5.31257C4.76246 8.43359 4.31647 7.98761 4.31647 7.4375C4.31647 6.88739 4.76246 6.44141 5.31257 6.44141ZM5.31257 11.7539H17.0001C17.5502 11.7539 17.9962 12.1999 17.9962 12.75C17.9962 13.3001 17.5502 13.7461 17.0001 13.7461H5.31257C4.76246 13.7461 4.31647 13.3001 4.31647 12.75C4.31647 12.1999 4.76246 11.7539 5.31257 11.7539ZM4.31647 18.0625C4.31647 17.5124 4.76246 17.0664 5.31257 17.0664H13.8126C14.3627 17.0664 14.8087 17.5124 14.8087 18.0625C14.8087 18.6126 14.3627 19.0586 13.8126 19.0586H5.31257C4.76246 19.0586 4.31647 18.6126 4.31647 18.0625Z" fill="white"/>
</svg>
