<svg width="28" height="26" viewBox="0 0 28 26" fill="none" xmlns="http://www.w3.org/2000/svg">
<path d="M20.5188 19.4844C18.7861 19.4844 17.3574 20.8827 17.3574 22.6458C17.3574 24.3785 18.7557 25.8072 20.5188 25.8072C22.2515 25.8072 23.6802 24.4089 23.6802 22.6458C23.6498 20.9131 22.2515 19.4844 20.5188 19.4844Z" fill="#F4F4F4"/>
<path d="M26.0816 4.40772C26.0208 4.40772 25.9296 4.37732 25.8384 4.37732H6.68758L6.3836 2.34065C6.20121 1.00314 5.04608 0 3.67817 0H1.21592C0.547166 0 0 0.547166 0 1.21592C0 1.88468 0.547166 2.43185 1.21592 2.43185H3.67817C3.83016 2.43185 3.95175 2.55344 3.98215 2.70543L5.86683 15.5334C6.11002 17.1445 7.50833 18.3604 9.14982 18.3604H21.7954C23.3761 18.3604 24.744 17.2357 25.0784 15.6854L27.0543 5.80603C27.1759 5.16767 26.7503 4.52931 26.0816 4.40772Z" fill="#F4F4F4"/>
<path d="M12.7673 22.4938C12.7065 20.8219 11.3082 19.4844 9.63628 19.4844C7.87319 19.5756 6.53568 21.0347 6.59648 22.7674C6.65727 24.4393 8.02519 25.7768 9.69708 25.7768H9.75788C11.4906 25.6856 12.8585 24.2265 12.7673 22.4938Z" fill="#F4F4F4"/>
</svg>
