<svg width="76" height="77" viewBox="0 0 76 77" fill="none" xmlns="http://www.w3.org/2000/svg">
<path d="M18.6885 39.1209C18.7013 42.9443 19.1762 46.752 20.1028 50.4595H34.8852V28.6562H19.8975C19.1089 32.0881 18.7034 35.5982 18.6885 39.1209Z" fill="white"/>
<path d="M38.6229 50.4595H53.8665C54.8636 46.7532 55.3929 42.9417 55.4426 39.1099C55.4349 35.5917 55.0246 32.0854 54.2193 28.6562H38.6229V50.4595Z" fill="white"/>
<path d="M71.4216 27.3989C70.0381 28.0391 68.5756 28.4893 67.0734 28.7375H66.5699C65.0001 28.9824 63.4024 28.9824 61.8326 28.7375H57.7132C58.4904 32.2307 58.897 35.7973 58.9262 39.3771C58.9144 43.2071 58.4768 47.0236 57.6217 50.7553H66.7759C66.2423 52.1916 65.6075 53.5876 64.8764 54.9326H56.5003C54.9339 59.8781 52.6179 64.5493 49.6347 68.7803C47.4332 69.7479 45.1299 70.4602 42.769 70.9036C46.9971 66.2705 50.2511 60.822 52.3351 54.8865H38.7869V71.3883H34.9193V54.8634H21.3024C23.3837 60.8071 26.6379 66.2637 30.8686 70.9036C28.5563 70.465 26.2997 69.7683 24.1402 68.8265C21.1464 64.56 18.8301 59.8491 17.2746 54.8634H8.85274C8.12164 53.5184 7.48686 52.1224 6.95325 50.686H16.1074C15.2497 46.9778 14.8045 43.1848 14.7801 39.3771C14.7813 35.8476 15.1495 32.328 15.8786 28.876H6.51842C6.9997 27.4439 7.58092 26.0479 8.25772 24.6986H16.9771C18.6131 19.2035 21.1504 14.0236 24.4835 9.37388C26.5972 8.49066 28.7993 7.84066 31.0516 7.43521C26.499 12.3628 23.0631 18.2297 20.982 24.6294H34.9193V7.06594H38.7869V24.6986H52.7242V24.3986C49.6498 21.5278 47.7278 17.6185 47.3232 13.4128C45.9549 11.3316 44.4244 9.36358 42.7461 7.52753C44.3475 7.83869 45.9234 8.27073 47.4605 8.81998C47.7072 7.33764 48.1458 5.89438 48.765 4.5272C40.9068 1.78701 32.3595 1.81487 24.519 4.60623C16.6785 7.39759 10.0082 12.7875 5.59751 19.8957C1.18682 27.0038 -0.703608 35.4102 0.234974 43.7418C1.17356 52.0733 4.88568 59.8378 10.7651 65.767C16.6445 71.6962 24.3437 75.4398 32.6053 76.3864C40.8668 77.3329 49.2025 75.4265 56.251 70.9784C63.2994 66.5303 68.644 59.8035 71.4119 51.8966C74.1798 43.9896 74.2075 35.3699 71.4903 27.4451L71.4216 27.3989Z" fill="white"/>
<path fill-rule="evenodd" clip-rule="evenodd" d="M76 11.5246C76 17.8894 70.8403 23.0492 64.4754 23.0492C58.1105 23.0492 52.9508 17.8894 52.9508 11.5246C52.9508 5.15973 58.1105 0 64.4754 0C70.8403 0 76 5.15973 76 11.5246ZM66.2733 17.4879C66.2733 16.5143 67.0622 15.7421 68.019 15.7421C68.9758 15.7421 69.748 16.5311 69.7647 17.4879C69.7647 18.4614 68.9758 19.2336 68.019 19.2336C67.0454 19.2336 66.2733 18.4446 66.2733 17.4879ZM71.0908 7.41755C71.0757 7.41755 71.0572 7.41416 71.0368 7.41043C71.0119 7.40585 70.9842 7.40077 70.9565 7.40077H60.3814L60.2135 6.27612C60.1128 5.53754 59.475 4.98361 58.7196 4.98361H57.36C56.9907 4.98361 56.6885 5.28575 56.6885 5.65504C56.6885 6.02433 56.9907 6.32647 57.36 6.32647H58.7196C58.8035 6.32647 58.8707 6.39362 58.8875 6.47755L59.9282 13.5612C60.0625 14.4508 60.8346 15.1222 61.7411 15.1222H68.724C69.5968 15.1222 70.3522 14.5012 70.5368 13.6451L71.6279 8.1897C71.6951 7.8372 71.4601 7.48469 71.0908 7.41755ZM62.0098 15.7421C62.933 15.7421 63.7051 16.4807 63.7387 17.4039C63.7891 18.3607 63.0337 19.1664 62.0769 19.2168H62.0433C61.1201 19.2168 60.3648 18.4782 60.3312 17.555C60.2976 16.5982 61.0362 15.7925 62.0098 15.7421Z" fill="white"/>
</svg>
