<svg width="93" height="84" viewBox="0 0 93 84" fill="none" xmlns="http://www.w3.org/2000/svg">
<path d="M5.96077 68.621L0 83.7092H24.759L35.1953 77.4258L16.158 62.4824L5.96077 68.621Z" fill="#9B9B9B"/>
<path d="M16.6079 41.6738L9.22656 60.3568L40.2591 41.6738H16.6079Z" fill="#9B9B9B"/>
<path d="M35.2246 83.7059H80.208L60.6816 68.3809L35.2246 83.7059Z" fill="#9B9B9B"/>
<path d="M81.1947 56.0234L65.625 65.3983L88.9437 83.7024H92.1308L81.1947 56.0234Z" fill="#9B9B9B"/>
<path d="M50.0488 41.6738L50.124 41.7329L69.3771 56.8436L79.1842 50.9404L75.522 41.6738H50.0488Z" fill="#9B9B9B"/>
<path d="M40.5259 47.8099L21.1035 59.5009L40.1428 74.445L64.4323 59.8214L45.9216 45.2913V31.8353L73.5478 18.2296L45.9216 4.62241V0H40.5259V47.8099Z" fill="#9B9B9B"/>
</svg>
