<svg width="25" height="30" viewBox="0 0 25 30" fill="none" xmlns="http://www.w3.org/2000/svg">
<path d="M21.5875 8.92636L23.3837 7.13091L21.6162 5.36356L19.6947 7.28428C17.9393 6.04081 15.8908 5.27445 13.75 5.06026V2.49889H16.25V0H8.75V2.49889H11.25V5.06026C9.10918 5.27445 7.06073 6.04081 5.30532 7.28428L3.38375 5.36356L1.61626 7.13091L3.4125 8.92636C1.73582 10.7008 0.615807 12.9273 0.190797 15.3309C-0.234214 17.7344 0.0543867 20.2098 1.02096 22.4512C1.98753 24.6927 3.58974 26.6021 5.62972 27.9436C7.6697 29.2851 10.0581 30 12.5 30C14.9419 30 17.3303 29.2851 19.3703 27.9436C21.4103 26.6021 23.0125 24.6927 23.979 22.4512C24.9456 20.2098 25.2342 17.7344 24.8092 15.3309C24.3842 12.9273 23.2642 10.7008 21.5875 8.92636ZM12.5 27.4878C10.5222 27.4878 8.58879 26.9016 6.9443 25.8033C5.29981 24.7049 4.01809 23.1439 3.26121 21.3174C2.50433 19.4909 2.3063 17.4812 2.69215 15.5422C3.078 13.6033 4.03041 11.8222 5.42894 10.4243C6.82746 9.02641 8.60929 8.07442 10.5491 7.68874C12.4889 7.30306 14.4996 7.50101 16.3268 8.25755C18.1541 9.01409 19.7159 10.2952 20.8147 11.939C21.9135 13.5828 22.5 15.5153 22.5 17.4923C22.497 20.1423 21.4425 22.683 19.5678 24.5569C17.6931 26.4308 15.1512 27.4849 12.5 27.4878Z" fill="#F4F4F4"/>
<path d="M12.5 9.99609V17.4928H5C5 18.9755 5.43987 20.4249 6.26398 21.6577C7.08809 22.8905 8.25943 23.8514 9.62987 24.4188C11.0003 24.9862 12.5083 25.1347 13.9632 24.8454C15.418 24.5561 16.7544 23.8422 17.8033 22.7937C18.8522 21.7453 19.5665 20.4095 19.8559 18.9553C20.1453 17.5011 19.9967 15.9938 19.4291 14.6239C18.8614 13.2541 17.9001 12.0833 16.6668 11.2595C15.4334 10.4358 13.9834 9.99609 12.5 9.99609Z" fill="#F4F4F4"/>
</svg>
