<svg width="21" height="31" viewBox="0 0 21 31" fill="none" xmlns="http://www.w3.org/2000/svg">
<path d="M10.2941 0C4.61803 0 0 4.61803 0 10.2941C0 11.998 0.426017 13.6875 1.23589 15.186L9.73113 30.5504C9.84423 30.7552 10.0597 30.8821 10.2941 30.8821C10.5284 30.8821 10.7439 30.7552 10.857 30.5504L19.3554 15.1809C20.1621 13.6875 20.5881 11.998 20.5881 10.294C20.5881 4.61803 15.9701 0 10.2941 0ZM10.2941 15.4411C7.45605 15.4411 5.14706 13.1321 5.14706 10.2941C5.14706 7.45605 7.45605 5.14706 10.2941 5.14706C13.1321 5.14706 15.4411 7.45605 15.4411 10.2941C15.4411 13.1321 13.1321 15.4411 10.2941 15.4411Z" fill="#050A30"/>
</svg>
