<svg width="27" height="26" viewBox="0 0 27 26" fill="none" xmlns="http://www.w3.org/2000/svg">
<path d="M13.5 0C6.05613 0 3.62845e-05 5.52477 3.62845e-05 12.3158C3.62845e-05 14.6895 0.740735 16.9889 2.14563 18.9773C1.87968 21.9591 1.16688 24.1727 0.131886 25.2214C-0.0049137 25.36 -0.0391137 25.5721 0.0472862 25.7473C0.123786 25.9038 0.281286 26 0.450036 26C0.470736 26 0.491436 25.9986 0.512586 25.9954C0.694835 25.9694 4.92843 25.3518 7.99067 23.5601C9.72947 24.2712 11.5817 24.6316 13.5 24.6316C20.9439 24.6316 27 19.1068 27 12.3158C27 5.52477 20.9439 0 13.5 0ZM7.20003 14.1404C6.20733 14.1404 5.40003 13.322 5.40003 12.3158C5.40003 11.3095 6.20733 10.4912 7.20003 10.4912C8.19273 10.4912 9.00002 11.3095 9.00002 12.3158C9.00002 13.322 8.19273 14.1404 7.20003 14.1404ZM13.5 14.1404C12.5073 14.1404 11.7 13.322 11.7 12.3158C11.7 11.3095 12.5073 10.4912 13.5 10.4912C14.4927 10.4912 15.3 11.3095 15.3 12.3158C15.3 13.322 14.4927 14.1404 13.5 14.1404ZM19.8 14.1404C18.8073 14.1404 18 13.322 18 12.3158C18 11.3095 18.8073 10.4912 19.8 10.4912C20.7927 10.4912 21.6 11.3095 21.6 12.3158C21.6 13.322 20.7927 14.1404 19.8 14.1404Z" fill="#050A30"/>
</svg>
