<svg width="33" height="62" viewBox="0 0 33 62" fill="none" xmlns="http://www.w3.org/2000/svg">
<path d="M28.976 0.505859H3.44813C1.54678 0.505859 0 2.16205 0 4.19707V6.63235H32.423V4.19707C32.4231 2.16205 30.8764 0.505859 28.976 0.505859ZM20.9803 5.61131H11.4448C10.9184 5.61131 10.4912 5.15386 10.4912 4.59027C10.4912 4.02668 10.9184 3.56923 11.4448 3.56923H20.9803C21.5067 3.56923 21.9339 4.02668 21.9339 4.59027C21.9339 5.15386 21.5067 5.61131 20.9803 5.61131ZM27.6552 5.61131H26.7017C26.1754 5.61131 25.7482 5.15386 25.7482 4.59027C25.7482 4.02668 26.1754 3.56923 26.7017 3.56923H27.6552C28.1816 3.56923 28.6088 4.02668 28.6088 4.59027C28.6089 5.15386 28.1817 5.61131 27.6552 5.61131Z" fill="#11163A"/>
<path d="M17.3959 54.623H15.0282C14.6296 54.623 14.3044 54.9702 14.3044 55.3981V55.8913C14.3044 56.3181 14.6286 56.6653 15.0282 56.6653H17.3959C17.7945 56.6653 18.1187 56.3181 18.1187 55.8913V55.3981C18.1197 54.9702 17.7945 54.623 17.3959 54.623Z" fill="#11163A"/>
<path d="M32.4232 8.67188H0.00219727V49.5153H32.4232V8.67188Z" fill="#11163A"/>
<path d="M0.00219727 51.5586V58.0781C0.00219727 60.1131 1.54887 61.7693 3.44932 61.7693H28.9771C30.8776 61.7693 32.4243 60.1131 32.4243 58.0781V51.5586H0.00219727ZM20.027 55.89C20.027 57.443 18.8474 58.7061 17.3971 58.7061H15.0294C13.5791 58.7061 12.3986 57.443 12.3986 55.89V55.3967C12.3986 53.8437 13.5791 52.5796 15.0294 52.5796H17.3971C18.8474 52.5796 20.027 53.8437 20.027 55.3967V55.89Z" fill="#11163A"/>
</svg>
