<svg width="58" height="62" viewBox="0 0 58 62" fill="none" xmlns="http://www.w3.org/2000/svg">
<path d="M54.6915 31.9409L56.9662 31.0274C56.5833 28.0059 55.7446 25.0712 54.4827 22.3379L51.3921 23.9926L54.6915 31.9409Z" fill="#11163A"/>
<path d="M18.2825 57.9993C18.3939 58.2378 18.42 58.5116 18.3561 58.7693C18.2922 59.027 18.1426 59.2509 17.9354 59.3988L14.613 61.7706H27.5855V57.3945H18.0001L18.2825 57.9993Z" fill="#11163A"/>
<path d="M14.894 55.6348L9.68481 58.8222L11.4756 61.3789L16.051 58.1126L14.894 55.6348Z" fill="#11163A"/>
<path d="M19.6697 7.53711L12.2603 11.0636V15.2756L21.5646 11.1241C20.7028 10.0857 20.0569 8.86303 19.6697 7.53711Z" fill="#11163A"/>
<path d="M30.7235 4.88187C31.5047 3.33405 32.421 1.86886 33.46 0.505859H23.7551C24.7939 1.86915 25.7102 3.33431 26.4919 4.88187H30.7235Z" fill="#11163A"/>
<path d="M29.9888 12.9114C35.2724 10.1733 35.7184 6.58914 35.7554 6.04746L35.0975 1.81836C33.9923 3.25734 33.0353 4.81986 32.2432 6.47878C31.263 8.52289 30.5065 10.6814 29.9888 12.9114Z" fill="#11163A"/>
<path d="M27.2229 12.9074C26.7054 10.6783 25.9497 8.5205 24.9709 6.47663C24.1785 4.81739 23.2215 3.25432 22.1166 1.81445L21.4585 6.04354C21.4967 6.60012 21.9472 10.1735 27.2229 12.9074Z" fill="#11163A"/>
<path d="M10.2814 42.4595L5.17645 28.2471L7.08366 27.4616L10.2168 36.1845V12.3828C7.69412 14.329 5.58011 16.8193 4.01085 19.6935L3.56195 20.5176C1.13245 24.9773 -0.098165 30.0695 0.00611812 35.2314C0.110401 40.3932 1.54552 45.4237 4.15286 49.7668L8.50851 57.0219L14.0708 53.6186L10.2814 42.4595Z" fill="#11163A"/>
<path d="M51.9494 61.7706H57.2139V57.3945H51.2683L51.9494 61.7706Z" fill="#11163A"/>
<path d="M35.6492 11.1241L44.9536 15.2756V11.0636L37.5441 7.53711C37.1569 8.86303 36.511 10.0857 35.6492 11.1241Z" fill="#11163A"/>
<path d="M57.1705 33.2811L54.5075 34.3506C54.2636 34.4486 53.994 34.4431 53.7538 34.3353C53.5136 34.2274 53.3209 34.0254 53.2151 33.7705L49.1284 23.9243C49.0218 23.6671 49.0119 23.3758 49.1007 23.1109C49.1895 22.846 49.3702 22.628 49.6053 22.5021L53.5079 20.4132C51.8167 17.3627 49.6086 14.677 46.9971 12.4941V27.7727L50.9386 55.2066H57.2138V34.8825C57.2138 34.3484 57.1986 33.8135 57.1705 33.2811Z" fill="#11163A"/>
<path d="M27.5012 7.07031C27.9181 8.07193 28.287 9.09567 28.6065 10.1375C28.926 9.09567 29.295 8.07193 29.7119 7.07031H27.5012Z" fill="#11163A"/>
<path d="M12.2603 17.6456V41.8859L14.5562 48.647L19.6163 41.4224L21.251 42.7352L15.3902 51.1028L16.2655 53.6803L16.9783 55.207H27.5854V15.4735C25.7244 14.6583 24.2859 13.728 23.176 12.7754L12.2603 17.6456Z" fill="#11163A"/>
<path d="M29.6287 15.4735V55.207H44.9538V17.6456L34.0381 12.7754C32.9282 13.728 31.4896 14.6583 29.6287 15.4735ZM37.5977 41.4224L43.7278 50.1745L42.0931 51.4874L35.963 42.7352L37.5977 41.4224Z" fill="#11163A"/>
<path d="M29.6287 57.3945H44.9538V61.7706H29.6287V57.3945Z" fill="#11163A"/>
</svg>
