<svg width="43" height="65" viewBox="0 0 43 65" fill="none" xmlns="http://www.w3.org/2000/svg">
<path d="M0 20.5936L7.70706 64.0091H28.3848V5.83203H5.91533L0 20.5936ZM7.66243 10.3638C7.66243 9.81481 7.99815 9.38809 8.51289 9.38809H23.9483C24.4615 9.38809 24.9311 9.81481 24.9311 10.3638V24.1713C24.9207 24.5263 24.7391 24.8497 24.4516 25.0264L16.7233 29.9565C16.5764 30.0482 16.4099 30.0971 16.2397 30.0971C16.0715 30.0971 15.9065 30.0482 15.7618 29.9565L8.07754 25.027C7.80565 24.8425 7.64739 24.5158 7.66243 24.1713V10.3638Z" fill="#11163A"/>
<path d="M23.0714 23.607V11.3809H9.52222V23.607L16.2968 27.9426L23.0714 23.607Z" fill="#11163A"/>
<path d="M6.20117 0H28.3847V3.84053H6.20117V0Z" fill="#11163A"/>
<path d="M30.2444 27.7363V59.848L42.1576 27.7363H30.2444Z" fill="#11163A"/>
</svg>
