<svg width="118" height="70" viewBox="0 0 118 70" fill="none" xmlns="http://www.w3.org/2000/svg">
<rect width="118" height="70" fill="#E5E5E5"/>
<g clip-path="url(#clip0_0_1)">
<rect width="1920" height="1425" transform="translate(-1242 -142)" fill="white"/>
<g filter="url(#filter0_d_0_1)">
<path d="M-1242 -142H678V989H-1242V-142Z" fill="#050A30"/>
</g>
<g filter="url(#filter1_d_0_1)">
<path d="M-1242 -15H678V85H-1242V-15Z" fill="#11163A"/>
</g>
<g filter="url(#filter2_d_0_1)">
<rect x="-682" width="800" height="70" rx="10" fill="white"/>
</g>
<path d="M0 0H108C113.523 0 118 4.47715 118 10V60C118 65.5229 113.523 70 108 70H0V0Z" fill="#C4C4C4"/>
<path d="M94.4079 21.0878H72.4539C71.8503 19.2952 70.1547 18 68.1611 18C66.1675 18 64.4719 19.2952 63.8683 21.0878H60.4414C59.6454 21.0878 59 21.7332 59 22.5293C59 23.3253 59.6454 23.9707 60.4414 23.9707H63.8684C64.472 25.7634 66.1676 27.0585 68.1612 27.0585C70.1548 27.0585 71.8504 25.7634 72.454 23.9707H94.408C95.2041 23.9707 95.8495 23.3253 95.8495 22.5293C95.8495 21.7332 95.2041 21.0878 94.4079 21.0878ZM68.1611 24.1757C67.2533 24.1757 66.5147 23.4371 66.5147 22.5293C66.5147 21.6215 67.2533 20.8829 68.1611 20.8829C69.0689 20.8829 69.8075 21.6215 69.8075 22.5293C69.8075 23.4371 69.0689 24.1757 68.1611 24.1757Z" fill="#050A30"/>
<path d="M94.4079 33.4394H90.981C90.3774 31.6467 88.6817 30.3516 86.6882 30.3516C84.6947 30.3516 82.9991 31.6467 82.3955 33.4394H60.4414C59.6454 33.4394 59 34.0848 59 34.8808C59 35.6769 59.6454 36.3223 60.4414 36.3223H82.3955C82.9991 38.1149 84.6948 39.4101 86.6883 39.4101C88.6818 39.4101 90.3775 38.1149 90.9811 36.3223H94.408C95.2041 36.3223 95.8495 35.6769 95.8495 34.8808C95.8495 34.0848 95.2041 33.4394 94.4079 33.4394ZM86.6883 36.5272C85.7805 36.5272 85.0419 35.7886 85.0419 34.8808C85.0419 33.973 85.7805 33.2344 86.6883 33.2344C87.5961 33.2344 88.3347 33.973 88.3347 34.8808C88.3347 35.7886 87.5961 36.5272 86.6883 36.5272Z" fill="#050A30"/>
<path d="M94.4079 45.791H78.6296C78.0261 43.9983 76.3304 42.7031 74.3369 42.7031C72.3433 42.7031 70.6476 43.9983 70.0441 45.791H60.4414C59.6454 45.791 59 46.4363 59 47.2324C59 48.0285 59.6454 48.6738 60.4414 48.6738H70.0441C70.6476 50.4665 72.3433 51.7617 74.3369 51.7617C76.3304 51.7617 78.0261 50.4665 78.6296 48.6738H94.408C95.2041 48.6738 95.8495 48.0285 95.8495 47.2324C95.8495 46.4363 95.2041 45.791 94.4079 45.791ZM74.3369 48.8789C73.429 48.8789 72.6904 48.1403 72.6904 47.2325C72.6904 46.3247 73.429 45.5861 74.3369 45.5861C75.2447 45.5861 75.9833 46.3246 75.9833 47.2324C75.9833 48.1402 75.2447 48.8789 74.3369 48.8789Z" fill="#050A30"/>
<path d="M31.882 41C31.678 40.46 31.486 39.932 31.306 39.416C31.126 38.888 30.94 38.354 30.748 37.814H25.096L23.962 41H22.144C22.624 39.68 23.074 38.462 23.494 37.346C23.914 36.218 24.322 35.15 24.718 34.142C25.126 33.134 25.528 32.174 25.924 31.262C26.32 30.338 26.734 29.426 27.166 28.526H28.768C29.2 29.426 29.614 30.338 30.01 31.262C30.406 32.174 30.802 33.134 31.198 34.142C31.606 35.15 32.02 36.218 32.44 37.346C32.86 38.462 33.31 39.68 33.79 41H31.882ZM30.244 36.374C29.86 35.33 29.476 34.322 29.092 33.35C28.72 32.366 28.33 31.424 27.922 30.524C27.502 31.424 27.1 32.366 26.716 33.35C26.344 34.322 25.972 35.33 25.6 36.374H30.244ZM38.1835 41.18C37.1515 41.156 36.4195 40.934 35.9875 40.514C35.5555 40.094 35.3395 39.44 35.3395 38.552V27.32L37.0135 27.032V38.282C37.0135 38.558 37.0375 38.786 37.0855 38.966C37.1335 39.146 37.2115 39.29 37.3195 39.398C37.4275 39.506 37.5715 39.59 37.7515 39.65C37.9315 39.698 38.1535 39.74 38.4175 39.776L38.1835 41.18ZM43.1054 41.18C42.0734 41.156 41.3414 40.934 40.9094 40.514C40.4774 40.094 40.2614 39.44 40.2614 38.552V27.32L41.9354 27.032V38.282C41.9354 38.558 41.9594 38.786 42.0074 38.966C42.0554 39.146 42.1334 39.29 42.2414 39.398C42.3494 39.506 42.4934 39.59 42.6734 39.65C42.8534 39.698 43.0754 39.74 43.3394 39.776L43.1054 41.18Z" fill="#11163A"/>
</g>
<defs>
<filter id="filter0_d_0_1" x="-1246" y="-143" width="1928" height="1139" filterUnits="userSpaceOnUse" color-interpolation-filters="sRGB">
<feFlood flood-opacity="0" result="BackgroundImageFix"/>
<feColorMatrix in="SourceAlpha" type="matrix" values="0 0 0 0 0 0 0 0 0 0 0 0 0 0 0 0 0 0 127 0" result="hardAlpha"/>
<feOffset dy="3"/>
<feGaussianBlur stdDeviation="2"/>
<feColorMatrix type="matrix" values="0 0 0 0 0 0 0 0 0 0 0 0 0 0 0 0 0 0 0.11 0"/>
<feBlend mode="normal" in2="BackgroundImageFix" result="effect1_dropShadow_0_1"/>
<feBlend mode="normal" in="SourceGraphic" in2="effect1_dropShadow_0_1" result="shape"/>
</filter>
<filter id="filter1_d_0_1" x="-1246" y="-16" width="1928" height="108" filterUnits="userSpaceOnUse" color-interpolation-filters="sRGB">
<feFlood flood-opacity="0" result="BackgroundImageFix"/>
<feColorMatrix in="SourceAlpha" type="matrix" values="0 0 0 0 0 0 0 0 0 0 0 0 0 0 0 0 0 0 127 0" result="hardAlpha"/>
<feOffset dy="3"/>
<feGaussianBlur stdDeviation="2"/>
<feColorMatrix type="matrix" values="0 0 0 0 0 0 0 0 0 0 0 0 0 0 0 0 0 0 0.11 0"/>
<feBlend mode="normal" in2="BackgroundImageFix" result="effect1_dropShadow_0_1"/>
<feBlend mode="normal" in="SourceGraphic" in2="effect1_dropShadow_0_1" result="shape"/>
</filter>
<filter id="filter2_d_0_1" x="-686" y="-4" width="808" height="78" filterUnits="userSpaceOnUse" color-interpolation-filters="sRGB">
<feFlood flood-opacity="0" result="BackgroundImageFix"/>
<feColorMatrix in="SourceAlpha" type="matrix" values="0 0 0 0 0 0 0 0 0 0 0 0 0 0 0 0 0 0 127 0" result="hardAlpha"/>
<feOffset/>
<feGaussianBlur stdDeviation="2"/>
<feColorMatrix type="matrix" values="0 0 0 0 0 0 0 0 0 0 0 0 0 0 0 0 0 0 0.1 0"/>
<feBlend mode="normal" in2="BackgroundImageFix" result="effect1_dropShadow_0_1"/>
<feBlend mode="normal" in="SourceGraphic" in2="effect1_dropShadow_0_1" result="shape"/>
</filter>
<clipPath id="clip0_0_1">
<rect width="1920" height="1425" fill="white" transform="translate(-1242 -142)"/>
</clipPath>
</defs>
</svg>
