<svg width="17" height="15" viewBox="0 0 17 15" fill="none" xmlns="http://www.w3.org/2000/svg">
<path d="M16.9555 5.66765C16.8436 5.3507 16.5383 5.12631 16.1785 5.09633L11.2711 4.68612L9.33166 0.505394C9.18847 0.198241 8.86266 0 8.50001 0C8.13736 0 7.81142 0.198241 7.66914 0.505394L5.72971 4.68612L0.821541 5.09633C0.461748 5.12691 0.157079 5.3513 0.044498 5.66765C-0.0674346 5.98459 0.0359376 6.33223 0.308052 6.55197L4.01765 9.54695L2.92388 13.9825C2.84385 14.3087 2.98133 14.6459 3.27524 14.8415C3.43321 14.9472 3.61882 15 3.80507 15C3.96512 15 4.1253 14.9608 4.26836 14.882L8.50001 12.5523L12.7309 14.882C13.0413 15.0528 13.4315 15.0371 13.7248 14.8415C14.0187 14.6459 14.1562 14.3087 14.0761 13.9825L12.9824 9.54695L16.692 6.55197C16.964 6.33223 17.0675 5.98531 16.9555 5.66765Z" fill="#050A30"/>
</svg>
