<svg width="22" height="26" viewBox="0 0 22 26" fill="none" xmlns="http://www.w3.org/2000/svg">
<path d="M20.5277 17.6741C18.9476 16.3386 18.0416 14.3865 18.0416 12.3185V9.405C18.0416 5.72765 15.31 2.68356 11.7716 2.1736V1.045C11.7716 0.467115 11.3035 0 10.7266 0C10.1498 0 9.68162 0.467115 9.68162 1.045V2.1736C6.1422 2.68356 3.41161 5.72765 3.41161 9.405V12.3185C3.41161 14.3865 2.5056 16.3386 0.916152 17.6825C0.509646 18.0304 0.276611 18.5362 0.276611 19.0713C0.276611 20.0797 1.09694 20.9 2.10536 20.9H19.3479C20.3563 20.9 21.1766 20.0797 21.1766 19.0713C21.1766 18.5362 20.9436 18.0304 20.5277 17.6741Z" fill="#F4F4F4"/>
<path d="M10.7268 25.0784C12.6193 25.0784 14.2025 23.7293 14.5661 21.9434H6.88745C7.25111 23.7293 8.83429 25.0784 10.7268 25.0784Z" fill="#F4F4F4"/>
</svg>
