<svg width="170" height="87" viewBox="0 0 170 87" fill="none" xmlns="http://www.w3.org/2000/svg">
<rect width="169.451" height="87" rx="8" fill="#12173A"/>
<mask id="mask0_681_1482" style="mask-type:alpha" maskUnits="userSpaceOnUse" x="0" y="0" width="170" height="87">
<rect width="169.451" height="87" rx="8" fill="#12173A"/>
</mask>
<g mask="url(#mask0_681_1482)">
<path d="M46.2553 0H103.402C103.402 0 171.353 0 91.1769 43.2157C11.0004 86.4314 54.7847 96.098 54.7847 96.098L25.5004 87H0.19644C0.19644 87 -25.3918 77.6176 35.7357 50.3235C96.8631 23.0294 46.2553 0 46.2553 0Z" fill="#202548"/>
<path d="M76.9608 0H134.108C134.108 0 202.059 0 121.882 43.2157C41.706 86.4314 85.4903 96.098 85.4903 96.098L56.206 87H30.902C30.902 87 5.31377 77.6176 66.4412 50.3235C127.569 23.0294 76.9608 0 76.9608 0Z" fill="#2A2F52"/>
<path d="M103.685 0H160.833C160.833 0 228.784 0 148.607 43.2157C68.4306 86.4314 112.215 96.098 112.215 96.098L82.9306 87H57.6266C57.6266 87 32.0384 77.6176 93.1658 50.3235C154.293 23.0294 103.685 0 103.685 0Z" fill="#34395C"/>
</g>
<path d="M19.2572 15.2851C19.2572 15.5505 19.228 15.7973 19.1697 16.0255C19.1166 16.2537 19.0184 16.4554 18.8751 16.6305C18.7371 16.8003 18.5487 16.9357 18.3099 17.0365C18.0764 17.132 17.7818 17.1798 17.4263 17.1798C17.2458 17.1798 17.0786 17.1639 16.9247 17.132C16.7761 17.1055 16.6408 17.071 16.5187 17.0285C16.3967 16.9808 16.2905 16.933 16.2003 16.8852C16.1101 16.8322 16.0384 16.7818 15.9854 16.734L16.2879 16.121C16.3993 16.2006 16.5426 16.2855 16.7177 16.3758C16.8982 16.4607 17.1211 16.5031 17.3864 16.5031C17.7686 16.5031 18.0472 16.4076 18.2223 16.2165C18.3975 16.0202 18.485 15.6858 18.485 15.2135V11.5436H19.2572V15.2851Z" fill="#F4F4F4"/>
<path d="M24.1929 14.9906C24.1929 15.3196 24.1452 15.6168 24.0496 15.8822C23.9541 16.1475 23.8188 16.3758 23.6436 16.5668C23.4738 16.7579 23.2695 16.9065 23.0306 17.0126C22.7918 17.1135 22.5318 17.1639 22.2505 17.1639C21.9692 17.1639 21.7092 17.1135 21.4703 17.0126C21.2315 16.9065 21.0245 16.7579 20.8494 16.5668C20.6796 16.3758 20.5469 16.1475 20.4514 15.8822C20.3558 15.6168 20.3081 15.3196 20.3081 14.9906C20.3081 14.6668 20.3558 14.3723 20.4514 14.1069C20.5469 13.8363 20.6796 13.6054 20.8494 13.4143C21.0245 13.2233 21.2315 13.0773 21.4703 12.9765C21.7092 12.8704 21.9692 12.8173 22.2505 12.8173C22.5318 12.8173 22.7918 12.8704 23.0306 12.9765C23.2695 13.0773 23.4738 13.2233 23.6436 13.4143C23.8188 13.6054 23.9541 13.8363 24.0496 14.1069C24.1452 14.3723 24.1929 14.6668 24.1929 14.9906ZM23.4207 14.9906C23.4207 14.5235 23.3146 14.1547 23.1023 13.884C22.8953 13.6081 22.6114 13.4701 22.2505 13.4701C21.8896 13.4701 21.603 13.6081 21.3907 13.884C21.1837 14.1547 21.0803 14.5235 21.0803 14.9906C21.0803 15.4576 21.1837 15.8291 21.3907 16.1051C21.603 16.3758 21.8896 16.5111 22.2505 16.5111C22.6114 16.5111 22.8953 16.3758 23.1023 16.1051C23.3146 15.8291 23.4207 15.4576 23.4207 14.9906Z" fill="#F4F4F4"/>
<path d="M25.2345 17.0604V11.0102L25.9749 10.8828V13.0004C26.1129 12.9473 26.2588 12.9075 26.4127 12.881C26.572 12.8491 26.7285 12.8332 26.8824 12.8332C27.2115 12.8332 27.4848 12.881 27.7024 12.9765C27.92 13.0667 28.0925 13.1967 28.2198 13.3666C28.3525 13.5311 28.4454 13.7301 28.4985 13.9636C28.5515 14.1972 28.5781 14.4546 28.5781 14.7358V17.0604H27.8377V14.895C27.8377 14.6403 27.8191 14.4227 27.782 14.2423C27.7501 14.0618 27.6944 13.9159 27.6148 13.8044C27.5352 13.693 27.4291 13.6134 27.2964 13.5656C27.1637 13.5125 26.9992 13.486 26.8028 13.486C26.7232 13.486 26.6409 13.4913 26.556 13.5019C26.4711 13.5125 26.3889 13.5258 26.3092 13.5417C26.2349 13.5523 26.166 13.5656 26.1023 13.5815C26.0439 13.5974 26.0014 13.6107 25.9749 13.6213V17.0604H25.2345Z" fill="#F4F4F4"/>
<path d="M29.7824 13.0402C29.9523 12.9977 30.1778 12.9526 30.4591 12.9049C30.7404 12.8571 31.0641 12.8332 31.4303 12.8332C31.7594 12.8332 32.0327 12.881 32.2503 12.9765C32.4679 13.0667 32.6404 13.1967 32.7677 13.3666C32.9004 13.5311 32.9933 13.7301 33.0464 13.9636C33.0994 14.1972 33.126 14.4546 33.126 14.7358V17.0604H32.3856V14.895C32.3856 14.6403 32.3671 14.4227 32.3299 14.2423C32.2981 14.0618 32.2423 13.9159 32.1627 13.8044C32.0831 13.693 31.977 13.6134 31.8443 13.5656C31.7116 13.5125 31.5471 13.486 31.3507 13.486C31.2711 13.486 31.1889 13.4886 31.1039 13.4939C31.019 13.4993 30.9368 13.5072 30.8572 13.5178C30.7829 13.5231 30.7139 13.5311 30.6502 13.5417C30.5918 13.5523 30.5493 13.5603 30.5228 13.5656V17.0604H29.7824V13.0402Z" fill="#F4F4F4"/>
<path d="M38.9426 14.7518C39.0276 14.8579 39.1337 14.9985 39.2611 15.1737C39.3937 15.3435 39.5291 15.5346 39.6671 15.7469C39.8051 15.9538 39.9404 16.1714 40.0731 16.3996C40.2111 16.6278 40.3278 16.8481 40.4233 17.0604H39.5795C39.4734 16.8587 39.3566 16.6544 39.2292 16.4474C39.1072 16.2404 38.9824 16.0441 38.8551 15.8583C38.7277 15.6672 38.6003 15.4895 38.473 15.3249C38.3509 15.1604 38.2394 15.0171 38.1386 14.895C38.0696 14.9004 37.998 14.903 37.9237 14.903C37.8547 14.903 37.783 14.903 37.7087 14.903H37.0161V17.0604H36.2439V11.6232C36.4615 11.5701 36.703 11.5356 36.9684 11.5197C37.239 11.4984 37.4858 11.4878 37.7087 11.4878C38.4836 11.4878 39.0727 11.6338 39.476 11.9257C39.8847 12.2176 40.089 12.6528 40.089 13.2312C40.089 13.5974 39.9908 13.9106 39.7944 14.1706C39.6034 14.4307 39.3194 14.6244 38.9426 14.7518ZM37.7724 12.1645C37.4434 12.1645 37.1913 12.1725 37.0161 12.1884V14.2661H37.5654C37.8308 14.2661 38.0696 14.2529 38.2819 14.2263C38.4942 14.1998 38.672 14.1494 38.8153 14.0751C38.9639 14.0008 39.078 13.8973 39.1576 13.7646C39.2372 13.6266 39.277 13.4462 39.277 13.2233C39.277 13.0163 39.2372 12.8438 39.1576 12.7058C39.078 12.5678 38.9692 12.459 38.8312 12.3794C38.6985 12.2998 38.5393 12.2441 38.3535 12.2123C38.1731 12.1804 37.9794 12.1645 37.7724 12.1645Z" fill="#F4F4F4"/>
<path d="M40.9719 14.9985C40.9719 14.6323 41.025 14.3139 41.1311 14.0432C41.2373 13.7673 41.3779 13.5391 41.553 13.3586C41.7282 13.1782 41.9298 13.0428 42.158 12.9526C42.3863 12.8624 42.6198 12.8173 42.8586 12.8173C43.4159 12.8173 43.8431 12.9924 44.1403 13.3427C44.4375 13.6877 44.5861 14.2157 44.5861 14.9269C44.5861 14.9587 44.5861 15.0012 44.5861 15.0543C44.5861 15.102 44.5834 15.1471 44.5781 15.1896H41.7441C41.7759 15.6195 41.9007 15.9459 42.1182 16.1688C42.3358 16.3917 42.6755 16.5031 43.1372 16.5031C43.3973 16.5031 43.6149 16.4819 43.79 16.4394C43.9705 16.3917 44.1058 16.3466 44.196 16.3041L44.2995 16.925C44.2093 16.9728 44.0501 17.0232 43.8219 17.0763C43.5989 17.1294 43.3442 17.1559 43.0576 17.1559C42.6967 17.1559 42.3836 17.1028 42.1182 16.9967C41.8582 16.8852 41.6433 16.734 41.4734 16.5429C41.3036 16.3519 41.1762 16.1263 41.0913 15.8663C41.0117 15.6009 40.9719 15.3117 40.9719 14.9985ZM43.8139 14.5925C43.8192 14.2582 43.7343 13.9849 43.5591 13.7726C43.3893 13.555 43.1531 13.4462 42.8506 13.4462C42.6808 13.4462 42.5296 13.4807 42.3969 13.5497C42.2695 13.6134 42.1607 13.6983 42.0705 13.8044C41.9803 13.9106 41.9086 14.0326 41.8555 14.1706C41.8078 14.3086 41.7759 14.4492 41.76 14.5925H43.8139Z" fill="#F4F4F4"/>
<path d="M46.8915 17.14C46.4351 17.1294 46.1113 17.0312 45.9203 16.8454C45.7292 16.6597 45.6337 16.3704 45.6337 15.9777V11.0102L46.374 10.8828V15.8583C46.374 15.9804 46.3846 16.0812 46.4059 16.1608C46.4271 16.2404 46.4616 16.3041 46.5094 16.3519C46.5571 16.3996 46.6208 16.4368 46.7004 16.4633C46.78 16.4846 46.8782 16.5031 46.995 16.519L46.8915 17.14Z" fill="#F4F4F4"/>
<path d="M49.0683 17.14C48.6118 17.1294 48.2881 17.0312 48.097 16.8454C47.906 16.6597 47.8105 16.3704 47.8105 15.9777V11.0102L48.5508 10.8828V15.8583C48.5508 15.9804 48.5614 16.0812 48.5826 16.1608C48.6039 16.2404 48.6384 16.3041 48.6861 16.3519C48.7339 16.3996 48.7976 16.4368 48.8772 16.4633C48.9568 16.4846 49.055 16.5031 49.1717 16.519L49.0683 17.14Z" fill="#F4F4F4"/>
<path d="M50.7435 17.0604H50.0032V12.9208H50.7435V17.0604ZM50.3694 12.1725C50.2367 12.1725 50.1226 12.13 50.027 12.0451C49.9368 11.9549 49.8917 11.8355 49.8917 11.6869C49.8917 11.5383 49.9368 11.4215 50.027 11.3366C50.1226 11.2464 50.2367 11.2012 50.3694 11.2012C50.502 11.2012 50.6135 11.2464 50.7037 11.3366C50.7992 11.4215 50.847 11.5383 50.847 11.6869C50.847 11.8355 50.7992 11.9549 50.7037 12.0451C50.6135 12.13 50.502 12.1725 50.3694 12.1725Z" fill="#F4F4F4"/>
<path d="M52.7093 12.9208H54.2775V13.5417H52.7093V15.4523C52.7093 15.6593 52.7252 15.8318 52.757 15.9698C52.7889 16.1024 52.8366 16.2086 52.9003 16.2882C52.964 16.3625 53.0436 16.4156 53.1391 16.4474C53.2347 16.4792 53.3461 16.4952 53.4735 16.4952C53.6964 16.4952 53.8742 16.4713 54.0069 16.4235C54.1449 16.3704 54.2404 16.3333 54.2935 16.3121L54.4367 16.925C54.3624 16.9622 54.2324 17.0073 54.0467 17.0604C53.8609 17.1188 53.6486 17.148 53.4098 17.148C53.1285 17.148 52.895 17.1135 52.7093 17.0445C52.5288 16.9702 52.3829 16.8614 52.2714 16.7181C52.16 16.5748 52.0804 16.3996 52.0326 16.1927C51.9901 15.9804 51.9689 15.7362 51.9689 15.4603V11.7665L52.7093 11.6391V12.9208Z" fill="#F4F4F4"/>
<path d="M54.911 14.9985C54.911 14.6323 54.9641 14.3139 55.0703 14.0432C55.1764 13.7673 55.317 13.5391 55.4922 13.3586C55.6673 13.1782 55.869 13.0428 56.0972 12.9526C56.3254 12.8624 56.5589 12.8173 56.7977 12.8173C57.355 12.8173 57.7822 12.9924 58.0794 13.3427C58.3766 13.6877 58.5252 14.2157 58.5252 14.9269C58.5252 14.9587 58.5252 15.0012 58.5252 15.0543C58.5252 15.102 58.5226 15.1471 58.5173 15.1896H55.6832C55.7151 15.6195 55.8398 15.9459 56.0574 16.1688C56.275 16.3917 56.6146 16.5031 57.0764 16.5031C57.3364 16.5031 57.554 16.4819 57.7292 16.4394C57.9096 16.3917 58.0449 16.3466 58.1352 16.3041L58.2386 16.925C58.1484 16.9728 57.9892 17.0232 57.761 17.0763C57.5381 17.1294 57.2834 17.1559 56.9968 17.1559C56.6359 17.1559 56.3228 17.1028 56.0574 16.9967C55.7973 16.8852 55.5824 16.734 55.4126 16.5429C55.2427 16.3519 55.1154 16.1263 55.0304 15.8663C54.9508 15.6009 54.911 15.3117 54.911 14.9985ZM57.753 14.5925C57.7583 14.2582 57.6734 13.9849 57.4983 13.7726C57.3285 13.555 57.0923 13.4462 56.7898 13.4462C56.62 13.4462 56.4687 13.4807 56.336 13.5497C56.2086 13.6134 56.0998 13.6983 56.0096 13.8044C55.9194 13.9106 55.8478 14.0326 55.7947 14.1706C55.7469 14.3086 55.7151 14.4492 55.6992 14.5925H57.753Z" fill="#F4F4F4"/>
<path d="M16.376 36.6451C16.376 35.5897 16.561 34.7769 16.931 34.2068C17.307 33.6366 17.8256 33.3516 18.4867 33.3516C19.1478 33.3516 19.6634 33.6366 20.0334 34.2068C20.4094 34.7769 20.5975 35.5897 20.5975 36.6451C20.5975 37.7004 20.4094 38.5132 20.0334 39.0833C19.6634 39.6535 19.1478 39.9385 18.4867 39.9385C17.8256 39.9385 17.307 39.6535 16.931 39.0833C16.561 38.5132 16.376 37.7004 16.376 36.6451ZM19.7059 36.6451C19.7059 36.2993 19.6846 35.9718 19.6422 35.6625C19.6058 35.3531 19.5391 35.0832 19.442 34.8527C19.351 34.6223 19.2267 34.4403 19.069 34.3069C18.9113 34.1674 18.7172 34.0976 18.4867 34.0976C18.2562 34.0976 18.0621 34.1674 17.9044 34.3069C17.7467 34.4403 17.6194 34.6223 17.5223 34.8527C17.4313 35.0832 17.3646 35.3531 17.3222 35.6625C17.2858 35.9718 17.2676 36.2993 17.2676 36.6451C17.2676 36.9908 17.2858 37.3183 17.3222 37.6276C17.3646 37.937 17.4313 38.2069 17.5223 38.4374C17.6194 38.6679 17.7467 38.8528 17.9044 38.9923C18.0621 39.1258 18.2562 39.1925 18.4867 39.1925C18.7172 39.1925 18.9113 39.1258 19.069 38.9923C19.2267 38.8528 19.351 38.6679 19.442 38.4374C19.5391 38.2069 19.6058 37.937 19.6422 37.6276C19.6846 37.3183 19.7059 36.9908 19.7059 36.6451Z" fill="#F4F4F4"/>
<path d="M21.5114 36.6451C21.5114 35.5897 21.6964 34.7769 22.0664 34.2068C22.4424 33.6366 22.961 33.3516 23.6221 33.3516C24.2833 33.3516 24.7988 33.6366 25.1688 34.2068C25.5449 34.7769 25.7329 35.5897 25.7329 36.6451C25.7329 37.7004 25.5449 38.5132 25.1688 39.0833C24.7988 39.6535 24.2833 39.9385 23.6221 39.9385C22.961 39.9385 22.4424 39.6535 22.0664 39.0833C21.6964 38.5132 21.5114 37.7004 21.5114 36.6451ZM24.8413 36.6451C24.8413 36.2993 24.82 35.9718 24.7776 35.6625C24.7412 35.3531 24.6745 35.0832 24.5774 34.8527C24.4865 34.6223 24.3621 34.4403 24.2044 34.3069C24.0467 34.1674 23.8526 34.0976 23.6221 34.0976C23.3917 34.0976 23.1976 34.1674 23.0399 34.3069C22.8822 34.4403 22.7548 34.6223 22.6577 34.8527C22.5668 35.0832 22.5 35.3531 22.4576 35.6625C22.4212 35.9718 22.403 36.2993 22.403 36.6451C22.403 36.9908 22.4212 37.3183 22.4576 37.6276C22.5 37.937 22.5668 38.2069 22.6577 38.4374C22.7548 38.6679 22.8822 38.8528 23.0399 38.9923C23.1976 39.1258 23.3917 39.1925 23.6221 39.1925C23.8526 39.1925 24.0467 39.1258 24.2044 38.9923C24.3621 38.8528 24.4865 38.6679 24.5774 38.4374C24.6745 38.2069 24.7412 37.937 24.7776 37.6276C24.82 37.3183 24.8413 36.9908 24.8413 36.6451Z" fill="#F4F4F4"/>
<path d="M26.6468 36.6451C26.6468 35.5897 26.8318 34.7769 27.2018 34.2068C27.5778 33.6366 28.0964 33.3516 28.7576 33.3516C29.4187 33.3516 29.9342 33.6366 30.3042 34.2068C30.6803 34.7769 30.8683 35.5897 30.8683 36.6451C30.8683 37.7004 30.6803 38.5132 30.3042 39.0833C29.9342 39.6535 29.4187 39.9385 28.7576 39.9385C28.0964 39.9385 27.5778 39.6535 27.2018 39.0833C26.8318 38.5132 26.6468 37.7004 26.6468 36.6451ZM29.9767 36.6451C29.9767 36.2993 29.9555 35.9718 29.913 35.6625C29.8766 35.3531 29.8099 35.0832 29.7128 34.8527C29.6219 34.6223 29.4975 34.4403 29.3398 34.3069C29.1821 34.1674 28.988 34.0976 28.7576 34.0976C28.5271 34.0976 28.333 34.1674 28.1753 34.3069C28.0176 34.4403 27.8902 34.6223 27.7932 34.8527C27.7022 35.0832 27.6355 35.3531 27.593 35.6625C27.5566 35.9718 27.5384 36.2993 27.5384 36.6451C27.5384 36.9908 27.5566 37.3183 27.593 37.6276C27.6355 37.937 27.7022 38.2069 27.7932 38.4374C27.8902 38.6679 28.0176 38.8528 28.1753 38.9923C28.333 39.1258 28.5271 39.1925 28.7576 39.1925C28.988 39.1925 29.1821 39.1258 29.3398 38.9923C29.4975 38.8528 29.6219 38.6679 29.7128 38.4374C29.8099 38.2069 29.8766 37.937 29.913 37.6276C29.9555 37.3183 29.9767 36.9908 29.9767 36.6451Z" fill="#F4F4F4"/>
<path d="M31.7822 36.6451C31.7822 35.5897 31.9672 34.7769 32.3372 34.2068C32.7133 33.6366 33.2318 33.3516 33.893 33.3516C34.5541 33.3516 35.0697 33.6366 35.4396 34.2068C35.8157 34.7769 36.0037 35.5897 36.0037 36.6451C36.0037 37.7004 35.8157 38.5132 35.4396 39.0833C35.0697 39.6535 34.5541 39.9385 33.893 39.9385C33.2318 39.9385 32.7133 39.6535 32.3372 39.0833C31.9672 38.5132 31.7822 37.7004 31.7822 36.6451ZM35.1121 36.6451C35.1121 36.2993 35.0909 35.9718 35.0484 35.6625C35.012 35.3531 34.9453 35.0832 34.8483 34.8527C34.7573 34.6223 34.6329 34.4403 34.4752 34.3069C34.3175 34.1674 34.1235 34.0976 33.893 34.0976C33.6625 34.0976 33.4684 34.1674 33.3107 34.3069C33.153 34.4403 33.0256 34.6223 32.9286 34.8527C32.8376 35.0832 32.7709 35.3531 32.7284 35.6625C32.692 35.9718 32.6738 36.2993 32.6738 36.6451C32.6738 36.9908 32.692 37.3183 32.7284 37.6276C32.7709 37.937 32.8376 38.2069 32.9286 38.4374C33.0256 38.6679 33.153 38.8528 33.3107 38.9923C33.4684 39.1258 33.6625 39.1925 33.893 39.1925C34.1235 39.1925 34.3175 39.1258 34.4752 38.9923C34.6329 38.8528 34.7573 38.6679 34.8483 38.4374C34.9453 38.2069 35.012 37.937 35.0484 37.6276C35.0909 37.3183 35.1121 36.9908 35.1121 36.6451Z" fill="#F4F4F4"/>
<path d="M39.0233 36.6451C39.0233 35.5897 39.2083 34.7769 39.5783 34.2068C39.9544 33.6366 40.473 33.3516 41.1341 33.3516C41.7952 33.3516 42.3108 33.6366 42.6808 34.2068C43.0568 34.7769 43.2448 35.5897 43.2448 36.6451C43.2448 37.7004 43.0568 38.5132 42.6808 39.0833C42.3108 39.6535 41.7952 39.9385 41.1341 39.9385C40.473 39.9385 39.9544 39.6535 39.5783 39.0833C39.2083 38.5132 39.0233 37.7004 39.0233 36.6451ZM42.3532 36.6451C42.3532 36.2993 42.332 35.9718 42.2895 35.6625C42.2531 35.3531 42.1864 35.0832 42.0894 34.8527C41.9984 34.6223 41.8741 34.4403 41.7164 34.3069C41.5587 34.1674 41.3646 34.0976 41.1341 34.0976C40.9036 34.0976 40.7095 34.1674 40.5518 34.3069C40.3941 34.4403 40.2667 34.6223 40.1697 34.8527C40.0787 35.0832 40.012 35.3531 39.9695 35.6625C39.9331 35.9718 39.915 36.2993 39.915 36.6451C39.915 36.9908 39.9331 37.3183 39.9695 37.6276C40.012 37.937 40.0787 38.2069 40.1697 38.4374C40.2667 38.6679 40.3941 38.8528 40.5518 38.9923C40.7095 39.1258 40.9036 39.1925 41.1341 39.1925C41.3646 39.1925 41.5587 39.1258 41.7164 38.9923C41.8741 38.8528 41.9984 38.6679 42.0894 38.4374C42.1864 38.2069 42.2531 37.937 42.2895 37.6276C42.332 37.3183 42.3532 36.9908 42.3532 36.6451Z" fill="#F4F4F4"/>
<path d="M44.1588 36.6451C44.1588 35.5897 44.3438 34.7769 44.7137 34.2068C45.0898 33.6366 45.6084 33.3516 46.2695 33.3516C46.9306 33.3516 47.4462 33.6366 47.8162 34.2068C48.1922 34.7769 48.3802 35.5897 48.3802 36.6451C48.3802 37.7004 48.1922 38.5132 47.8162 39.0833C47.4462 39.6535 46.9306 39.9385 46.2695 39.9385C45.6084 39.9385 45.0898 39.6535 44.7137 39.0833C44.3438 38.5132 44.1588 37.7004 44.1588 36.6451ZM47.4886 36.6451C47.4886 36.2993 47.4674 35.9718 47.425 35.6625C47.3886 35.3531 47.3218 35.0832 47.2248 34.8527C47.1338 34.6223 47.0095 34.4403 46.8518 34.3069C46.6941 34.1674 46.5 34.0976 46.2695 34.0976C46.039 34.0976 45.8449 34.1674 45.6872 34.3069C45.5295 34.4403 45.4022 34.6223 45.3051 34.8527C45.2141 35.0832 45.1474 35.3531 45.105 35.6625C45.0686 35.9718 45.0504 36.2993 45.0504 36.6451C45.0504 36.9908 45.0686 37.3183 45.105 37.6276C45.1474 37.937 45.2141 38.2069 45.3051 38.4374C45.4022 38.6679 45.5295 38.8528 45.6872 38.9923C45.8449 39.1258 46.039 39.1925 46.2695 39.1925C46.5 39.1925 46.6941 39.1258 46.8518 38.9923C47.0095 38.8528 47.1338 38.6679 47.2248 38.4374C47.3218 38.2069 47.3886 37.937 47.425 37.6276C47.4674 37.3183 47.4886 36.9908 47.4886 36.6451Z" fill="#F4F4F4"/>
<path d="M49.2942 36.6451C49.2942 35.5897 49.4792 34.7769 49.8492 34.2068C50.2252 33.6366 50.7438 33.3516 51.4049 33.3516C52.066 33.3516 52.5816 33.6366 52.9516 34.2068C53.3276 34.7769 53.5157 35.5897 53.5157 36.6451C53.5157 37.7004 53.3276 38.5132 52.9516 39.0833C52.5816 39.6535 52.066 39.9385 51.4049 39.9385C50.7438 39.9385 50.2252 39.6535 49.8492 39.0833C49.4792 38.5132 49.2942 37.7004 49.2942 36.6451ZM52.6241 36.6451C52.6241 36.2993 52.6028 35.9718 52.5604 35.6625C52.524 35.3531 52.4573 35.0832 52.3602 34.8527C52.2692 34.6223 52.1449 34.4403 51.9872 34.3069C51.8295 34.1674 51.6354 34.0976 51.4049 34.0976C51.1744 34.0976 50.9803 34.1674 50.8226 34.3069C50.6649 34.4403 50.5376 34.6223 50.4405 34.8527C50.3495 35.0832 50.2828 35.3531 50.2404 35.6625C50.204 35.9718 50.1858 36.2993 50.1858 36.6451C50.1858 36.9908 50.204 37.3183 50.2404 37.6276C50.2828 37.937 50.3495 38.2069 50.4405 38.4374C50.5376 38.6679 50.6649 38.8528 50.8226 38.9923C50.9803 39.1258 51.1744 39.1925 51.4049 39.1925C51.6354 39.1925 51.8295 39.1258 51.9872 38.9923C52.1449 38.8528 52.2692 38.6679 52.3602 38.4374C52.4573 38.2069 52.524 37.937 52.5604 37.6276C52.6028 37.3183 52.6241 36.9908 52.6241 36.6451Z" fill="#F4F4F4"/>
<path d="M54.4296 36.6451C54.4296 35.5897 54.6146 34.7769 54.9846 34.2068C55.3606 33.6366 55.8792 33.3516 56.5403 33.3516C57.2015 33.3516 57.717 33.6366 58.087 34.2068C58.4631 34.7769 58.6511 35.5897 58.6511 36.6451C58.6511 37.7004 58.4631 38.5132 58.087 39.0833C57.717 39.6535 57.2015 39.9385 56.5403 39.9385C55.8792 39.9385 55.3606 39.6535 54.9846 39.0833C54.6146 38.5132 54.4296 37.7004 54.4296 36.6451ZM57.7595 36.6451C57.7595 36.2993 57.7383 35.9718 57.6958 35.6625C57.6594 35.3531 57.5927 35.0832 57.4956 34.8527C57.4047 34.6223 57.2803 34.4403 57.1226 34.3069C56.9649 34.1674 56.7708 34.0976 56.5403 34.0976C56.3099 34.0976 56.1158 34.1674 55.9581 34.3069C55.8004 34.4403 55.673 34.6223 55.5759 34.8527C55.485 35.0832 55.4182 35.3531 55.3758 35.6625C55.3394 35.9718 55.3212 36.2993 55.3212 36.6451C55.3212 36.9908 55.3394 37.3183 55.3758 37.6276C55.4182 37.937 55.485 38.2069 55.5759 38.4374C55.673 38.6679 55.8004 38.8528 55.9581 38.9923C56.1158 39.1258 56.3099 39.1925 56.5403 39.1925C56.7708 39.1925 56.9649 39.1258 57.1226 38.9923C57.2803 38.8528 57.4047 38.6679 57.4956 38.4374C57.5927 38.2069 57.6594 37.937 57.6958 37.6276C57.7383 37.3183 57.7595 36.9908 57.7595 36.6451Z" fill="#F4F4F4"/>
<path d="M61.6707 36.6451C61.6707 35.5897 61.8557 34.7769 62.2257 34.2068C62.6017 33.6366 63.1203 33.3516 63.7815 33.3516C64.4426 33.3516 64.9581 33.6366 65.3281 34.2068C65.7042 34.7769 65.8922 35.5897 65.8922 36.6451C65.8922 37.7004 65.7042 38.5132 65.3281 39.0833C64.9581 39.6535 64.4426 39.9385 63.7815 39.9385C63.1203 39.9385 62.6017 39.6535 62.2257 39.0833C61.8557 38.5132 61.6707 37.7004 61.6707 36.6451ZM65.0006 36.6451C65.0006 36.2993 64.9794 35.9718 64.9369 35.6625C64.9005 35.3531 64.8338 35.0832 64.7367 34.8527C64.6458 34.6223 64.5214 34.4403 64.3637 34.3069C64.206 34.1674 64.0119 34.0976 63.7815 34.0976C63.551 34.0976 63.3569 34.1674 63.1992 34.3069C63.0415 34.4403 62.9141 34.6223 62.8171 34.8527C62.7261 35.0832 62.6594 35.3531 62.6169 35.6625C62.5805 35.9718 62.5623 36.2993 62.5623 36.6451C62.5623 36.9908 62.5805 37.3183 62.6169 37.6276C62.6594 37.937 62.7261 38.2069 62.8171 38.4374C62.9141 38.6679 63.0415 38.8528 63.1992 38.9923C63.3569 39.1258 63.551 39.1925 63.7815 39.1925C64.0119 39.1925 64.206 39.1258 64.3637 38.9923C64.5214 38.8528 64.6458 38.6679 64.7367 38.4374C64.8338 38.2069 64.9005 37.937 64.9369 37.6276C64.9794 37.3183 65.0006 36.9908 65.0006 36.6451Z" fill="#F4F4F4"/>
<path d="M66.8061 36.6451C66.8061 35.5897 66.9911 34.7769 67.3611 34.2068C67.7372 33.6366 68.2557 33.3516 68.9169 33.3516C69.578 33.3516 70.0936 33.6366 70.4635 34.2068C70.8396 34.7769 71.0276 35.5897 71.0276 36.6451C71.0276 37.7004 70.8396 38.5132 70.4635 39.0833C70.0936 39.6535 69.578 39.9385 68.9169 39.9385C68.2557 39.9385 67.7372 39.6535 67.3611 39.0833C66.9911 38.5132 66.8061 37.7004 66.8061 36.6451ZM70.136 36.6451C70.136 36.2993 70.1148 35.9718 70.0723 35.6625C70.0359 35.3531 69.9692 35.0832 69.8722 34.8527C69.7812 34.6223 69.6568 34.4403 69.4991 34.3069C69.3414 34.1674 69.1474 34.0976 68.9169 34.0976C68.6864 34.0976 68.4923 34.1674 68.3346 34.3069C68.1769 34.4403 68.0495 34.6223 67.9525 34.8527C67.8615 35.0832 67.7948 35.3531 67.7523 35.6625C67.7159 35.9718 67.6977 36.2993 67.6977 36.6451C67.6977 36.9908 67.7159 37.3183 67.7523 37.6276C67.7948 37.937 67.8615 38.2069 67.9525 38.4374C68.0495 38.6679 68.1769 38.8528 68.3346 38.9923C68.4923 39.1258 68.6864 39.1925 68.9169 39.1925C69.1474 39.1925 69.3414 39.1258 69.4991 38.9923C69.6568 38.8528 69.7812 38.6679 69.8722 38.4374C69.9692 38.2069 70.0359 37.937 70.0723 37.6276C70.1148 37.3183 70.136 36.9908 70.136 36.6451Z" fill="#F4F4F4"/>
<path d="M71.9415 36.6451C71.9415 35.5897 72.1265 34.7769 72.4965 34.2068C72.8726 33.6366 73.3912 33.3516 74.0523 33.3516C74.7134 33.3516 75.229 33.6366 75.599 34.2068C75.975 34.7769 76.163 35.5897 76.163 36.6451C76.163 37.7004 75.975 38.5132 75.599 39.0833C75.229 39.6535 74.7134 39.9385 74.0523 39.9385C73.3912 39.9385 72.8726 39.6535 72.4965 39.0833C72.1265 38.5132 71.9415 37.7004 71.9415 36.6451ZM75.2714 36.6451C75.2714 36.2993 75.2502 35.9718 75.2077 35.6625C75.1713 35.3531 75.1046 35.0832 75.0076 34.8527C74.9166 34.6223 74.7923 34.4403 74.6346 34.3069C74.4769 34.1674 74.2828 34.0976 74.0523 34.0976C73.8218 34.0976 73.6277 34.1674 73.47 34.3069C73.3123 34.4403 73.1849 34.6223 73.0879 34.8527C72.9969 35.0832 72.9302 35.3531 72.8877 35.6625C72.8513 35.9718 72.8332 36.2993 72.8332 36.6451C72.8332 36.9908 72.8513 37.3183 72.8877 37.6276C72.9302 37.937 72.9969 38.2069 73.0879 38.4374C73.1849 38.6679 73.3123 38.8528 73.47 38.9923C73.6277 39.1258 73.8218 39.1925 74.0523 39.1925C74.2828 39.1925 74.4769 39.1258 74.6346 38.9923C74.7923 38.8528 74.9166 38.6679 75.0076 38.4374C75.1046 38.2069 75.1713 37.937 75.2077 37.6276C75.2502 37.3183 75.2714 36.9908 75.2714 36.6451Z" fill="#F4F4F4"/>
<path d="M77.077 36.6451C77.077 35.5897 77.262 34.7769 77.6319 34.2068C78.008 33.6366 78.5266 33.3516 79.1877 33.3516C79.8488 33.3516 80.3644 33.6366 80.7344 34.2068C81.1104 34.7769 81.2985 35.5897 81.2985 36.6451C81.2985 37.7004 81.1104 38.5132 80.7344 39.0833C80.3644 39.6535 79.8488 39.9385 79.1877 39.9385C78.5266 39.9385 78.008 39.6535 77.6319 39.0833C77.262 38.5132 77.077 37.7004 77.077 36.6451ZM80.4068 36.6451C80.4068 36.2993 80.3856 35.9718 80.3432 35.6625C80.3068 35.3531 80.24 35.0832 80.143 34.8527C80.052 34.6223 79.9277 34.4403 79.77 34.3069C79.6123 34.1674 79.4182 34.0976 79.1877 34.0976C78.9572 34.0976 78.7631 34.1674 78.6054 34.3069C78.4477 34.4403 78.3204 34.6223 78.2233 34.8527C78.1323 35.0832 78.0656 35.3531 78.0232 35.6625C77.9868 35.9718 77.9686 36.2993 77.9686 36.6451C77.9686 36.9908 77.9868 37.3183 78.0232 37.6276C78.0656 37.937 78.1323 38.2069 78.2233 38.4374C78.3204 38.6679 78.4477 38.8528 78.6054 38.9923C78.7631 39.1258 78.9572 39.1925 79.1877 39.1925C79.4182 39.1925 79.6123 39.1258 79.77 38.9923C79.9277 38.8528 80.052 38.6679 80.143 38.4374C80.24 38.2069 80.3068 37.937 80.3432 37.6276C80.3856 37.3183 80.4068 36.9908 80.4068 36.6451Z" fill="#F4F4F4"/>
<path d="M84.3181 36.6451C84.3181 35.5897 84.5031 34.7769 84.8731 34.2068C85.2491 33.6366 85.7677 33.3516 86.4288 33.3516C87.0899 33.3516 87.6055 33.6366 87.9755 34.2068C88.3515 34.7769 88.5396 35.5897 88.5396 36.6451C88.5396 37.7004 88.3515 38.5132 87.9755 39.0833C87.6055 39.6535 87.0899 39.9385 86.4288 39.9385C85.7677 39.9385 85.2491 39.6535 84.8731 39.0833C84.5031 38.5132 84.3181 37.7004 84.3181 36.6451ZM87.648 36.6451C87.648 36.2993 87.6267 35.9718 87.5843 35.6625C87.5479 35.3531 87.4812 35.0832 87.3841 34.8527C87.2931 34.6223 87.1688 34.4403 87.0111 34.3069C86.8534 34.1674 86.6593 34.0976 86.4288 34.0976C86.1983 34.0976 86.0042 34.1674 85.8465 34.3069C85.6889 34.4403 85.5615 34.6223 85.4644 34.8527C85.3734 35.0832 85.3067 35.3531 85.2643 35.6625C85.2279 35.9718 85.2097 36.2993 85.2097 36.6451C85.2097 36.9908 85.2279 37.3183 85.2643 37.6276C85.3067 37.937 85.3734 38.2069 85.4644 38.4374C85.5615 38.6679 85.6889 38.8528 85.8465 38.9923C86.0042 39.1258 86.1983 39.1925 86.4288 39.1925C86.6593 39.1925 86.8534 39.1258 87.0111 38.9923C87.1688 38.8528 87.2931 38.6679 87.3841 38.4374C87.4812 38.2069 87.5479 37.937 87.5843 37.6276C87.6267 37.3183 87.648 36.9908 87.648 36.6451Z" fill="#F4F4F4"/>
<path d="M89.4535 36.6451C89.4535 35.5897 89.6385 34.7769 90.0085 34.2068C90.3845 33.6366 90.9031 33.3516 91.5642 33.3516C92.2254 33.3516 92.7409 33.6366 93.1109 34.2068C93.487 34.7769 93.675 35.5897 93.675 36.6451C93.675 37.7004 93.487 38.5132 93.1109 39.0833C92.7409 39.6535 92.2254 39.9385 91.5642 39.9385C90.9031 39.9385 90.3845 39.6535 90.0085 39.0833C89.6385 38.5132 89.4535 37.7004 89.4535 36.6451ZM92.7834 36.6451C92.7834 36.2993 92.7621 35.9718 92.7197 35.6625C92.6833 35.3531 92.6166 35.0832 92.5195 34.8527C92.4286 34.6223 92.3042 34.4403 92.1465 34.3069C91.9888 34.1674 91.7947 34.0976 91.5642 34.0976C91.3338 34.0976 91.1397 34.1674 90.982 34.3069C90.8243 34.4403 90.6969 34.6223 90.5998 34.8527C90.5089 35.0832 90.4421 35.3531 90.3997 35.6625C90.3633 35.9718 90.3451 36.2993 90.3451 36.6451C90.3451 36.9908 90.3633 37.3183 90.3997 37.6276C90.4421 37.937 90.5089 38.2069 90.5998 38.4374C90.6969 38.6679 90.8243 38.8528 90.982 38.9923C91.1397 39.1258 91.3338 39.1925 91.5642 39.1925C91.7947 39.1925 91.9888 39.1258 92.1465 38.9923C92.3042 38.8528 92.4286 38.6679 92.5195 38.4374C92.6166 38.2069 92.6833 37.937 92.7197 37.6276C92.7621 37.3183 92.7834 36.9908 92.7834 36.6451Z" fill="#F4F4F4"/>
<path d="M94.5889 36.6451C94.5889 35.5897 94.7739 34.7769 95.1439 34.2068C95.5199 33.6366 96.0385 33.3516 96.6997 33.3516C97.3608 33.3516 97.8763 33.6366 98.2463 34.2068C98.6224 34.7769 98.8104 35.5897 98.8104 36.6451C98.8104 37.7004 98.6224 38.5132 98.2463 39.0833C97.8763 39.6535 97.3608 39.9385 96.6997 39.9385C96.0385 39.9385 95.5199 39.6535 95.1439 39.0833C94.7739 38.5132 94.5889 37.7004 94.5889 36.6451ZM97.9188 36.6451C97.9188 36.2993 97.8976 35.9718 97.8551 35.6625C97.8187 35.3531 97.752 35.0832 97.6549 34.8527C97.564 34.6223 97.4396 34.4403 97.2819 34.3069C97.1242 34.1674 96.9301 34.0976 96.6997 34.0976C96.4692 34.0976 96.2751 34.1674 96.1174 34.3069C95.9597 34.4403 95.8323 34.6223 95.7353 34.8527C95.6443 35.0832 95.5776 35.3531 95.5351 35.6625C95.4987 35.9718 95.4805 36.2993 95.4805 36.6451C95.4805 36.9908 95.4987 37.3183 95.5351 37.6276C95.5776 37.937 95.6443 38.2069 95.7353 38.4374C95.8323 38.6679 95.9597 38.8528 96.1174 38.9923C96.2751 39.1258 96.4692 39.1925 96.6997 39.1925C96.9301 39.1925 97.1242 39.1258 97.2819 38.9923C97.4396 38.8528 97.564 38.6679 97.6549 38.4374C97.752 38.2069 97.8187 37.937 97.8551 37.6276C97.8976 37.3183 97.9188 36.9908 97.9188 36.6451Z" fill="#F4F4F4"/>
<path d="M99.7243 36.6451C99.7243 35.5897 99.9093 34.7769 100.279 34.2068C100.655 33.6366 101.174 33.3516 101.835 33.3516C102.496 33.3516 103.012 33.6366 103.382 34.2068C103.758 34.7769 103.946 35.5897 103.946 36.6451C103.946 37.7004 103.758 38.5132 103.382 39.0833C103.012 39.6535 102.496 39.9385 101.835 39.9385C101.174 39.9385 100.655 39.6535 100.279 39.0833C99.9093 38.5132 99.7243 37.7004 99.7243 36.6451ZM103.054 36.6451C103.054 36.2993 103.033 35.9718 102.991 35.6625C102.954 35.3531 102.887 35.0832 102.79 34.8527C102.699 34.6223 102.575 34.4403 102.417 34.3069C102.26 34.1674 102.066 34.0976 101.835 34.0976C101.605 34.0976 101.41 34.1674 101.253 34.3069C101.095 34.4403 100.968 34.6223 100.871 34.8527C100.78 35.0832 100.713 35.3531 100.671 35.6625C100.634 35.9718 100.616 36.2993 100.616 36.6451C100.616 36.9908 100.634 37.3183 100.671 37.6276C100.713 37.937 100.78 38.2069 100.871 38.4374C100.968 38.6679 101.095 38.8528 101.253 38.9923C101.41 39.1258 101.605 39.1925 101.835 39.1925C102.066 39.1925 102.26 39.1258 102.417 38.9923C102.575 38.8528 102.699 38.6679 102.79 38.4374C102.887 38.2069 102.954 37.937 102.991 37.6276C103.033 37.3183 103.054 36.9908 103.054 36.6451Z" fill="#F4F4F4"/>
<path d="M16.6064 60.8435V55.3267H19.9739V55.9874H17.3786V57.6274H19.6873V58.2722H17.3786V60.1828H20.1729V60.8435H16.6064Z" fill="#F4F4F4"/>
<path d="M23.6524 60.8435C23.594 60.7268 23.5223 60.5967 23.4374 60.4534C23.3525 60.3101 23.2596 60.1642 23.1588 60.0156C23.058 59.8617 22.9545 59.7104 22.8483 59.5618C22.7422 59.4132 22.6387 59.2726 22.5379 59.1399C22.437 59.2726 22.3335 59.4159 22.2274 59.5698C22.1212 59.7184 22.0177 59.8696 21.9169 60.0236C21.8214 60.1722 21.7312 60.3181 21.6462 60.4614C21.5613 60.6047 21.4897 60.7321 21.4313 60.8435H20.6671C20.8528 60.4826 21.0731 60.1164 21.3278 59.7449C21.5879 59.3681 21.8453 59.0099 22.1 58.6702L20.7308 56.7039H21.5666L22.5538 58.1528L23.5489 56.7039H24.337L22.9996 58.6225C23.2543 58.9674 23.5144 59.3336 23.7797 59.721C24.0504 60.1032 24.2786 60.4773 24.4644 60.8435H23.6524Z" fill="#F4F4F4"/>
<path d="M28.1163 58.7817C28.1163 58.2987 27.9969 57.9272 27.7581 57.6672C27.5193 57.4071 27.2008 57.2771 26.8028 57.2771C26.5799 57.2771 26.4047 57.285 26.2774 57.301C26.1553 57.3169 26.0571 57.3355 25.9828 57.3567V59.9678C26.073 60.0421 26.2031 60.1138 26.3729 60.1828C26.5427 60.2518 26.7285 60.2863 26.9302 60.2863C27.1424 60.2863 27.3229 60.2491 27.4715 60.1748C27.6254 60.0952 27.7501 59.9891 27.8456 59.8564C27.9412 59.7184 28.0102 59.5592 28.0526 59.3787C28.0951 59.193 28.1163 58.994 28.1163 58.7817ZM28.8885 58.7817C28.8885 59.0948 28.846 59.384 28.7611 59.6494C28.6815 59.9148 28.5621 60.143 28.4029 60.334C28.2437 60.5251 28.0473 60.6737 27.8138 60.7798C27.5856 60.886 27.3229 60.939 27.0257 60.939C26.7869 60.939 26.5746 60.9072 26.3888 60.8435C26.2084 60.7798 26.073 60.7188 25.9828 60.6604V62.3163H25.2425V56.8313C25.4176 56.7888 25.6352 56.7437 25.8953 56.6959C26.1606 56.6429 26.4658 56.6163 26.8107 56.6163C27.1292 56.6163 27.4158 56.6668 27.6705 56.7676C27.9253 56.8684 28.1428 57.0117 28.3233 57.1975C28.5037 57.3832 28.6417 57.6114 28.7373 57.8821C28.8381 58.1475 28.8885 58.4473 28.8885 58.7817Z" fill="#F4F4F4"/>
<path d="M30.6707 60.8435H29.9303V56.7039H30.6707V60.8435ZM30.2965 55.9556C30.1638 55.9556 30.0497 55.9131 29.9542 55.8282C29.864 55.738 29.8189 55.6186 29.8189 55.47C29.8189 55.3214 29.864 55.2046 29.9542 55.1197C30.0497 55.0295 30.1638 54.9844 30.2965 54.9844C30.4292 54.9844 30.5406 55.0295 30.6309 55.1197C30.7264 55.2046 30.7742 55.3214 30.7742 55.47C30.7742 55.6186 30.7264 55.738 30.6309 55.8282C30.5406 55.9131 30.4292 55.9556 30.2965 55.9556Z" fill="#F4F4F4"/>
<path d="M33.4723 56.6163C33.536 56.6163 33.6076 56.6216 33.6872 56.6323C33.7722 56.6376 33.8544 56.6482 33.934 56.6641C34.0136 56.6747 34.0853 56.688 34.149 56.7039C34.218 56.7145 34.2684 56.7251 34.3002 56.7357L34.1728 57.3806C34.1145 57.3593 34.0163 57.3355 33.8783 57.3089C33.7456 57.2771 33.5731 57.2612 33.3608 57.2612C33.2229 57.2612 33.0849 57.2771 32.9469 57.3089C32.8142 57.3355 32.7266 57.354 32.6842 57.3647V60.8435H31.9438V56.879C32.119 56.8154 32.3366 56.757 32.5966 56.7039C32.8567 56.6455 33.1486 56.6163 33.4723 56.6163Z" fill="#F4F4F4"/>
<path d="M34.7001 61.6157C34.7584 61.6422 34.8327 61.6661 34.923 61.6874C35.0185 61.7139 35.1114 61.7272 35.2016 61.7272C35.4935 61.7272 35.7217 61.6608 35.8862 61.5281C36.0507 61.4008 36.1993 61.1911 36.332 60.8992C35.9977 60.2624 35.6845 59.5884 35.3927 58.8772C35.1061 58.1607 34.8672 57.4363 34.6762 56.7039H35.4723C35.5306 56.9427 35.5996 57.2001 35.6792 57.4761C35.7642 57.7521 35.857 58.036 35.9579 58.3279C36.0587 58.6198 36.1675 58.9117 36.2843 59.2036C36.401 59.4955 36.5231 59.7768 36.6505 60.0474C36.8521 59.4902 37.0273 58.9382 37.1759 58.3916C37.3245 57.845 37.4651 57.2824 37.5978 56.7039H38.362C38.171 57.4841 37.9587 58.235 37.7252 58.9568C37.4916 59.6733 37.2396 60.3446 36.9689 60.9709C36.8627 61.2097 36.7513 61.414 36.6345 61.5839C36.5231 61.759 36.3984 61.9023 36.2604 62.0137C36.1224 62.1252 35.9658 62.2075 35.7907 62.2605C35.6209 62.3136 35.4272 62.3401 35.2096 62.3401C35.1512 62.3401 35.0901 62.3348 35.0265 62.3242C34.9628 62.3189 34.8991 62.3083 34.8354 62.2924C34.777 62.2818 34.7213 62.2685 34.6682 62.2526C34.6205 62.2366 34.586 62.2234 34.5647 62.2128L34.7001 61.6157Z" fill="#F4F4F4"/>
<path d="M45.5627 58.0811C45.5627 58.5588 45.4884 58.9754 45.3398 59.331C45.1912 59.6812 44.9815 59.9731 44.7109 60.2067C44.4402 60.4349 44.1165 60.6073 43.7397 60.7241C43.3629 60.8356 42.9489 60.8913 42.4978 60.8913C42.2749 60.8913 42.0281 60.8807 41.7574 60.8594C41.4921 60.8435 41.2506 60.809 41.033 60.7559V55.4063C41.2506 55.3532 41.4921 55.3187 41.7574 55.3028C42.0281 55.2816 42.2749 55.271 42.4978 55.271C42.9489 55.271 43.3629 55.3293 43.7397 55.4461C44.1165 55.5576 44.4402 55.73 44.7109 55.9636C44.9815 56.1918 45.1912 56.4837 45.3398 56.8392C45.4884 57.1895 45.5627 57.6035 45.5627 58.0811ZM42.5615 60.2146C43.2939 60.2146 43.8405 60.0289 44.2014 59.6574C44.5623 59.2805 44.7427 58.7551 44.7427 58.0811C44.7427 57.4071 44.5623 56.8843 44.2014 56.5128C43.8405 56.136 43.2939 55.9476 42.5615 55.9476C42.3439 55.9476 42.174 55.9503 42.052 55.9556C41.9352 55.9609 41.853 55.9662 41.8052 55.9715V60.1907C41.853 60.196 41.9352 60.2013 42.052 60.2067C42.174 60.212 42.3439 60.2146 42.5615 60.2146Z" fill="#F4F4F4"/>
<path d="M47.9527 60.3101C48.1278 60.3101 48.2817 60.3075 48.4144 60.3022C48.5524 60.2916 48.6665 60.2756 48.7567 60.2544V59.0205C48.7036 58.994 48.6161 58.9727 48.494 58.9568C48.3772 58.9356 48.2339 58.925 48.0641 58.925C47.9527 58.925 47.8332 58.9329 47.7059 58.9488C47.5838 58.9648 47.4697 58.9993 47.3636 59.0523C47.2627 59.1001 47.1778 59.1691 47.1088 59.2593C47.0398 59.3442 47.0053 59.4583 47.0053 59.6016C47.0053 59.867 47.0902 60.0527 47.2601 60.1589C47.4299 60.2597 47.6608 60.3101 47.9527 60.3101ZM47.889 56.6004C48.1862 56.6004 48.4356 56.6402 48.6373 56.7198C48.8443 56.7941 49.0088 56.9029 49.1309 57.0462C49.2582 57.1842 49.3484 57.3514 49.4015 57.5477C49.4546 57.7388 49.4811 57.9511 49.4811 58.1846V60.7719C49.4174 60.7825 49.3272 60.7984 49.2105 60.8196C49.099 60.8356 48.9716 60.8515 48.8283 60.8674C48.6851 60.8833 48.5285 60.8966 48.3587 60.9072C48.1941 60.9231 48.0296 60.9311 47.8651 60.9311C47.6316 60.9311 47.4166 60.9072 47.2203 60.8594C47.0239 60.8117 46.8541 60.7374 46.7108 60.6365C46.5675 60.5304 46.456 60.3924 46.3764 60.2226C46.2968 60.0527 46.257 59.8484 46.257 59.6096C46.257 59.3814 46.3021 59.185 46.3923 59.0205C46.4879 58.856 46.6152 58.7233 46.7745 58.6225C46.9337 58.5216 47.1194 58.4473 47.3317 58.3996C47.544 58.3518 47.7669 58.3279 48.0004 58.3279C48.0747 58.3279 48.1517 58.3332 48.2313 58.3438C48.3109 58.3491 48.3852 58.3597 48.4542 58.3757C48.5285 58.3863 48.5922 58.3969 48.6452 58.4075C48.6983 58.4181 48.7355 58.4261 48.7567 58.4314V58.2244C48.7567 58.1023 48.7434 57.9829 48.7169 57.8662C48.6904 57.7441 48.6426 57.638 48.5736 57.5477C48.5046 57.4522 48.4091 57.3779 48.287 57.3248C48.1703 57.2665 48.0163 57.2373 47.8253 57.2373C47.5812 57.2373 47.3662 57.2559 47.1805 57.293C47 57.3248 46.8647 57.3593 46.7745 57.3965L46.6869 56.7835C46.7824 56.7411 46.9416 56.7013 47.1645 56.6641C47.3874 56.6216 47.6289 56.6004 47.889 56.6004Z" fill="#F4F4F4"/>
<path d="M51.4033 56.7039H52.9716V57.3248H51.4033V59.2354C51.4033 59.4424 51.4193 59.6149 51.4511 59.7529C51.483 59.8856 51.5307 59.9917 51.5944 60.0713C51.6581 60.1456 51.7377 60.1987 51.8332 60.2305C51.9288 60.2624 52.0402 60.2783 52.1676 60.2783C52.3905 60.2783 52.5683 60.2544 52.701 60.2067C52.8389 60.1536 52.9345 60.1164 52.9875 60.0952L53.1308 60.7082C53.0565 60.7453 52.9265 60.7904 52.7408 60.8435C52.555 60.9019 52.3427 60.9311 52.1039 60.9311C51.8226 60.9311 51.5891 60.8966 51.4033 60.8276C51.2229 60.7533 51.077 60.6445 50.9655 60.5012C50.854 60.3579 50.7744 60.1828 50.7267 59.9758C50.6842 59.7635 50.663 59.5194 50.663 59.2434V55.5496L51.4033 55.4222V56.7039Z" fill="#F4F4F4"/>
<path d="M53.6051 58.7817C53.6051 58.4155 53.6582 58.097 53.7643 57.8264C53.8705 57.5504 54.0111 57.3222 54.1863 57.1417C54.3614 56.9613 54.5631 56.826 54.7913 56.7357C55.0195 56.6455 55.253 56.6004 55.4918 56.6004C56.0491 56.6004 56.4763 56.7756 56.7735 57.1258C57.0707 57.4708 57.2193 57.9989 57.2193 58.71C57.2193 58.7419 57.2193 58.7843 57.2193 58.8374C57.2193 58.8852 57.2167 58.9303 57.2114 58.9727H54.3773C54.4092 59.4026 54.5339 59.729 54.7515 59.9519C54.9691 60.1748 55.3087 60.2863 55.7705 60.2863C56.0305 60.2863 56.2481 60.265 56.4232 60.2226C56.6037 60.1748 56.739 60.1297 56.8292 60.0872L56.9327 60.7082C56.8425 60.7559 56.6833 60.8064 56.4551 60.8594C56.2322 60.9125 55.9774 60.939 55.6909 60.939C55.33 60.939 55.0168 60.886 54.7515 60.7798C54.4914 60.6684 54.2765 60.5171 54.1067 60.3261C53.9368 60.135 53.8095 59.9094 53.7245 59.6494C53.6449 59.384 53.6051 59.0948 53.6051 58.7817ZM56.4471 58.3757C56.4524 58.0413 56.3675 57.768 56.1924 57.5557C56.0225 57.3381 55.7864 57.2293 55.4839 57.2293C55.314 57.2293 55.1628 57.2638 55.0301 57.3328C54.9027 57.3965 54.7939 57.4814 54.7037 57.5876C54.6135 57.6937 54.5418 57.8158 54.4888 57.9537C54.441 58.0917 54.4092 58.2324 54.3932 58.3757H56.4471Z" fill="#F4F4F4"/>
<path d="M16.3203 72.8654C16.3203 71.942 16.4822 71.2308 16.8059 70.7319C17.135 70.2331 17.5887 69.9836 18.1672 69.9836C18.7457 69.9836 19.1968 70.2331 19.5205 70.7319C19.8496 71.2308 20.0141 71.942 20.0141 72.8654C20.0141 73.7889 19.8496 74.5 19.5205 74.9989C19.1968 75.4978 18.7457 75.7472 18.1672 75.7472C17.5887 75.7472 17.135 75.4978 16.8059 74.9989C16.4822 74.5 16.3203 73.7889 16.3203 72.8654ZM19.234 72.8654C19.234 72.5629 19.2154 72.2763 19.1782 72.0057C19.1464 71.735 19.088 71.4988 19.0031 71.2972C18.9235 71.0955 18.8147 70.9363 18.6767 70.8195C18.5387 70.6974 18.3689 70.6364 18.1672 70.6364C17.9655 70.6364 17.7957 70.6974 17.6577 70.8195C17.5197 70.9363 17.4083 71.0955 17.3234 71.2972C17.2438 71.4988 17.1854 71.735 17.1482 72.0057C17.1164 72.2763 17.1005 72.5629 17.1005 72.8654C17.1005 73.1679 17.1164 73.4545 17.1482 73.7252C17.1854 73.9959 17.2438 74.232 17.3234 74.4337C17.4083 74.6354 17.5197 74.7973 17.6577 74.9193C17.7957 75.0361 17.9655 75.0945 18.1672 75.0945C18.3689 75.0945 18.5387 75.0361 18.6767 74.9193C18.8147 74.7973 18.9235 74.6354 19.0031 74.4337C19.088 74.232 19.1464 73.9959 19.1782 73.7252C19.2154 73.4545 19.234 73.1679 19.234 72.8654Z" fill="#F4F4F4"/>
<path d="M24.1334 71.5201C24.1334 71.7111 24.0936 71.8969 24.014 72.0773C23.9397 72.2525 23.8389 72.4276 23.7115 72.6027C23.5842 72.7726 23.4409 72.9424 23.2816 73.1122C23.1224 73.2767 22.9632 73.4386 22.804 73.5978C22.7138 73.688 22.6076 73.7942 22.4856 73.9163C22.3688 74.0383 22.2574 74.1657 22.1512 74.2984C22.0451 74.4311 21.9548 74.5584 21.8805 74.6805C21.8116 74.8026 21.7771 74.9087 21.7771 74.9989H24.3165V75.6278H20.973C20.9677 75.596 20.9651 75.5641 20.9651 75.5323C20.9651 75.5005 20.9651 75.4713 20.9651 75.4447C20.9651 75.1953 21.0049 74.9644 21.0845 74.7521C21.1694 74.5345 21.2782 74.3302 21.4109 74.1392C21.5435 73.9481 21.6921 73.7677 21.8567 73.5978C22.0212 73.428 22.1831 73.2635 22.3423 73.1043C22.475 72.9769 22.5997 72.8522 22.7164 72.7301C22.8385 72.6027 22.9446 72.478 23.0349 72.3559C23.1304 72.2286 23.2047 72.0985 23.2578 71.9659C23.3161 71.8332 23.3453 71.6925 23.3453 71.5439C23.3453 71.3847 23.3188 71.2494 23.2657 71.1379C23.218 71.0265 23.1516 70.9336 23.0667 70.8593C22.9818 70.785 22.881 70.7319 22.7642 70.7001C22.6527 70.6629 22.5333 70.6444 22.406 70.6444C22.2521 70.6444 22.1114 70.6656 21.984 70.7081C21.8567 70.7505 21.7426 70.8009 21.6417 70.8593C21.5409 70.9124 21.456 70.9708 21.387 71.0345C21.318 71.0928 21.2649 71.1379 21.2278 71.1698L20.8616 70.6444C20.9093 70.5913 20.981 70.5276 21.0765 70.4533C21.172 70.3737 21.2861 70.2994 21.4188 70.2304C21.5515 70.1614 21.7001 70.103 21.8646 70.0553C22.0291 70.0075 22.2069 69.9836 22.398 69.9836C22.9765 69.9836 23.409 70.119 23.6956 70.3896C23.9875 70.655 24.1334 71.0318 24.1334 71.5201Z" fill="#F4F4F4"/>
<path d="M25.4745 77.1006H24.7182L27.4169 69.3945H28.1573L25.4745 77.1006Z" fill="#F4F4F4"/>
<path d="M31.6822 71.5201C31.6822 71.7111 31.6424 71.8969 31.5628 72.0773C31.4885 72.2525 31.3877 72.4276 31.2603 72.6027C31.1329 72.7726 30.9896 72.9424 30.8304 73.1122C30.6712 73.2767 30.512 73.4386 30.3528 73.5978C30.2625 73.688 30.1564 73.7942 30.0343 73.9163C29.9176 74.0383 29.8061 74.1657 29.7 74.2984C29.5938 74.4311 29.5036 74.5584 29.4293 74.6805C29.3603 74.8026 29.3258 74.9087 29.3258 74.9989H31.8653V75.6278H28.5218C28.5165 75.596 28.5138 75.5641 28.5138 75.5323C28.5138 75.5005 28.5138 75.4713 28.5138 75.4447C28.5138 75.1953 28.5536 74.9644 28.6332 74.7521C28.7181 74.5345 28.8269 74.3302 28.9596 74.1392C29.0923 73.9481 29.2409 73.7677 29.4054 73.5978C29.5699 73.428 29.7318 73.2635 29.891 73.1043C30.0237 72.9769 30.1484 72.8522 30.2652 72.7301C30.3872 72.6027 30.4934 72.478 30.5836 72.3559C30.6791 72.2286 30.7534 72.0985 30.8065 71.9659C30.8649 71.8332 30.8941 71.6925 30.8941 71.5439C30.8941 71.3847 30.8675 71.2494 30.8145 71.1379C30.7667 71.0265 30.7004 70.9336 30.6155 70.8593C30.5305 70.785 30.4297 70.7319 30.3129 70.7001C30.2015 70.6629 30.0821 70.6444 29.9547 70.6444C29.8008 70.6444 29.6602 70.6656 29.5328 70.7081C29.4054 70.7505 29.2913 70.8009 29.1905 70.8593C29.0896 70.9124 29.0047 70.9708 28.9357 71.0345C28.8667 71.0928 28.8137 71.1379 28.7765 71.1698L28.4103 70.6444C28.4581 70.5913 28.5297 70.5276 28.6253 70.4533C28.7208 70.3737 28.8349 70.2994 28.9676 70.2304C29.1003 70.1614 29.2489 70.103 29.4134 70.0553C29.5779 70.0075 29.7557 69.9836 29.9467 69.9836C30.5252 69.9836 30.9578 70.119 31.2444 70.3896C31.5363 70.655 31.6822 71.0318 31.6822 71.5201Z" fill="#F4F4F4"/>
<path d="M33.1984 71.2494C33.5009 71.1326 33.7954 70.984 34.082 70.8036C34.3686 70.6178 34.6313 70.387 34.8701 70.111H35.3955V75.6278H34.6552V71.1379C34.5915 71.1963 34.5119 71.2574 34.4164 71.321C34.3261 71.3847 34.2253 71.4458 34.1138 71.5041C34.0077 71.5625 33.8936 71.6182 33.7715 71.6713C33.6548 71.7244 33.5407 71.7695 33.4292 71.8066L33.1984 71.2494Z" fill="#F4F4F4"/>
<path d="M127.018 60.9628C126.631 60.9628 126.278 60.8991 125.959 60.7718C125.641 60.6444 125.368 60.4586 125.139 60.2145C124.911 59.9704 124.733 59.6705 124.606 59.3149C124.484 58.9541 124.423 58.5427 124.423 58.081C124.423 57.6193 124.492 57.2106 124.63 56.8551C124.773 56.4942 124.964 56.1917 125.203 55.9475C125.442 55.7034 125.72 55.5177 126.039 55.3903C126.357 55.2629 126.697 55.1992 127.058 55.1992C127.286 55.1992 127.49 55.2151 127.671 55.247C127.857 55.2788 128.016 55.316 128.148 55.3584C128.286 55.4009 128.398 55.4433 128.483 55.4858C128.568 55.5283 128.626 55.5601 128.658 55.5813L128.435 56.2182C128.387 56.1864 128.318 56.1519 128.228 56.1147C128.138 56.0776 128.034 56.0404 127.918 56.0033C127.806 55.9661 127.681 55.9369 127.543 55.9157C127.411 55.8892 127.275 55.8759 127.137 55.8759C126.846 55.8759 126.583 55.9263 126.349 56.0271C126.116 56.128 125.917 56.2739 125.752 56.465C125.588 56.656 125.46 56.8896 125.37 57.1655C125.285 57.4362 125.243 57.7414 125.243 58.081C125.243 58.4101 125.28 58.7099 125.354 58.9806C125.434 59.2513 125.551 59.4848 125.705 59.6811C125.858 59.8722 126.05 60.0208 126.278 60.1269C126.511 60.2331 126.782 60.2862 127.09 60.2862C127.445 60.2862 127.74 60.249 127.973 60.1747C128.207 60.1004 128.382 60.0341 128.499 59.9757L128.698 60.6126C128.661 60.6391 128.594 60.6736 128.499 60.716C128.403 60.7532 128.284 60.7903 128.141 60.8275C127.997 60.8646 127.83 60.8965 127.639 60.923C127.448 60.9496 127.241 60.9628 127.018 60.9628Z" fill="#F4F4F4"/>
<path d="M134.173 55.3266C133.971 55.9104 133.777 56.4517 133.591 56.9506C133.411 57.4442 133.233 57.9138 133.058 58.3597C132.883 58.8055 132.708 59.2327 132.533 59.6413C132.363 60.0447 132.188 60.4454 132.007 60.8434H131.283C131.102 60.4454 130.925 60.0447 130.749 59.6413C130.58 59.2327 130.404 58.8055 130.224 58.3597C130.049 57.9138 129.868 57.4442 129.683 56.9506C129.497 56.4517 129.306 55.9104 129.11 55.3266H129.961C130.248 56.1651 130.529 56.9718 130.805 57.7467C131.081 58.5215 131.365 59.2486 131.657 59.9279C131.949 59.2539 132.233 58.5295 132.509 57.7546C132.785 56.9745 133.063 56.1651 133.345 55.3266H134.173Z" fill="#F4F4F4"/>
<path d="M137.179 60.9628C136.792 60.9628 136.439 60.8991 136.12 60.7718C135.802 60.6444 135.528 60.4586 135.3 60.2145C135.072 59.9704 134.894 59.6705 134.767 59.3149C134.645 58.9541 134.584 58.5427 134.584 58.081C134.584 57.6193 134.653 57.2106 134.791 56.8551C134.934 56.4942 135.125 56.1917 135.364 55.9475C135.603 55.7034 135.881 55.5177 136.2 55.3903C136.518 55.2629 136.858 55.1992 137.219 55.1992C137.447 55.1992 137.651 55.2151 137.832 55.247C138.017 55.2788 138.177 55.316 138.309 55.3584C138.447 55.4009 138.559 55.4433 138.644 55.4858C138.729 55.5283 138.787 55.5601 138.819 55.5813L138.596 56.2182C138.548 56.1864 138.479 56.1519 138.389 56.1147C138.299 56.0776 138.195 56.0404 138.079 56.0033C137.967 55.9661 137.842 55.9369 137.704 55.9157C137.572 55.8892 137.436 55.8759 137.298 55.8759C137.006 55.8759 136.744 55.9263 136.51 56.0271C136.277 56.128 136.078 56.2739 135.913 56.465C135.749 56.656 135.621 56.8896 135.531 57.1655C135.446 57.4362 135.404 57.7414 135.404 58.081C135.404 58.4101 135.441 58.7099 135.515 58.9806C135.595 59.2513 135.712 59.4848 135.865 59.6811C136.019 59.8722 136.21 60.0208 136.439 60.1269C136.672 60.2331 136.943 60.2862 137.251 60.2862C137.606 60.2862 137.901 60.249 138.134 60.1747C138.368 60.1004 138.543 60.0341 138.66 59.9757L138.859 60.6126C138.822 60.6391 138.755 60.6736 138.66 60.716C138.564 60.7532 138.445 60.7903 138.301 60.8275C138.158 60.8646 137.991 60.8965 137.8 60.923C137.609 60.9496 137.402 60.9628 137.179 60.9628Z" fill="#F4F4F4"/>
<path d="M128.809 71.6402C128.809 71.9003 128.786 72.1842 128.738 72.492C128.69 72.7945 128.618 73.0997 128.523 73.4075C128.433 73.71 128.316 74.0019 128.173 74.2832C128.029 74.5645 127.859 74.8139 127.663 75.0315C127.472 75.2491 127.254 75.4242 127.01 75.5569C126.766 75.6843 126.498 75.748 126.206 75.748C125.755 75.748 125.421 75.61 125.203 75.334C124.991 75.0527 124.885 74.6388 124.885 74.0921C124.885 73.8321 124.909 73.5508 124.956 73.2483C125.004 72.9405 125.073 72.6353 125.163 72.3328C125.259 72.025 125.378 71.7304 125.522 71.4492C125.665 71.1679 125.832 70.9184 126.023 70.7008C126.22 70.4833 126.437 70.3108 126.676 70.1834C126.92 70.0507 127.191 69.9844 127.488 69.9844C127.939 69.9844 128.271 70.125 128.483 70.4063C128.701 70.6823 128.809 71.0936 128.809 71.6402ZM128.053 71.7357C128.053 71.3377 128.005 71.0538 127.91 70.8839C127.814 70.7141 127.645 70.6292 127.4 70.6292C127.236 70.6292 127.077 70.6796 126.923 70.7805C126.769 70.8813 126.626 71.0166 126.493 71.1865C126.365 71.3563 126.249 71.5553 126.143 71.7835C126.036 72.0064 125.946 72.2426 125.872 72.492C125.798 72.7415 125.739 72.9962 125.697 73.2563C125.66 73.5163 125.641 73.7631 125.641 73.9966C125.641 74.3946 125.689 74.6786 125.784 74.8484C125.88 75.0182 126.05 75.1032 126.294 75.1032C126.464 75.1032 126.623 75.0527 126.771 74.9519C126.925 74.8511 127.066 74.7157 127.193 74.5459C127.326 74.3761 127.445 74.1797 127.552 73.9568C127.658 73.7286 127.748 73.4898 127.822 73.2403C127.897 72.9909 127.952 72.7388 127.989 72.4841C128.032 72.224 128.053 71.9746 128.053 71.7357Z" fill="#F4F4F4"/>
<path d="M133.303 71.6402C133.303 71.9003 133.279 72.1842 133.231 72.492C133.184 72.7945 133.112 73.0997 133.016 73.4075C132.926 73.71 132.809 74.0019 132.666 74.2832C132.523 74.5645 132.353 74.8139 132.157 75.0315C131.966 75.2491 131.748 75.4242 131.504 75.5569C131.26 75.6843 130.992 75.748 130.7 75.748C130.249 75.748 129.914 75.61 129.697 75.334C129.484 75.0527 129.378 74.6388 129.378 74.0921C129.378 73.8321 129.402 73.5508 129.45 73.2483C129.498 72.9405 129.567 72.6353 129.657 72.3328C129.752 72.025 129.872 71.7304 130.015 71.4492C130.158 71.1679 130.326 70.9184 130.517 70.7008C130.713 70.4833 130.931 70.3108 131.169 70.1834C131.414 70.0507 131.684 69.9844 131.981 69.9844C132.433 69.9844 132.764 70.125 132.977 70.4063C133.194 70.6823 133.303 71.0936 133.303 71.6402ZM132.547 71.7357C132.547 71.3377 132.499 71.0538 132.403 70.8839C132.308 70.7141 132.138 70.6292 131.894 70.6292C131.729 70.6292 131.57 70.6796 131.416 70.7805C131.262 70.8813 131.119 71.0166 130.986 71.1865C130.859 71.3563 130.742 71.5553 130.636 71.7835C130.53 72.0064 130.44 72.2426 130.365 72.492C130.291 72.7415 130.233 72.9962 130.19 73.2563C130.153 73.5163 130.135 73.7631 130.135 73.9966C130.135 74.3946 130.182 74.6786 130.278 74.8484C130.373 75.0182 130.543 75.1032 130.787 75.1032C130.957 75.1032 131.116 75.0527 131.265 74.9519C131.419 74.8511 131.56 74.7157 131.687 74.5459C131.82 74.3761 131.939 74.1797 132.045 73.9568C132.151 73.7286 132.241 73.4898 132.316 73.2403C132.39 72.9909 132.446 72.7388 132.483 72.4841C132.525 72.224 132.547 71.9746 132.547 71.7357Z" fill="#F4F4F4"/>
<path d="M137.796 71.6402C137.796 71.9003 137.773 72.1842 137.725 72.492C137.677 72.7945 137.605 73.0997 137.51 73.4075C137.42 73.71 137.303 74.0019 137.16 74.2832C137.016 74.5645 136.846 74.8139 136.65 75.0315C136.459 75.2491 136.241 75.4242 135.997 75.5569C135.753 75.6843 135.485 75.748 135.193 75.748C134.742 75.748 134.408 75.61 134.19 75.334C133.978 75.0527 133.872 74.6388 133.872 74.0921C133.872 73.8321 133.896 73.5508 133.943 73.2483C133.991 72.9405 134.06 72.6353 134.15 72.3328C134.246 72.025 134.365 71.7304 134.509 71.4492C134.652 71.1679 134.819 70.9184 135.01 70.7008C135.207 70.4833 135.424 70.3108 135.663 70.1834C135.907 70.0507 136.178 69.9844 136.475 69.9844C136.926 69.9844 137.258 70.125 137.47 70.4063C137.688 70.6823 137.796 71.0936 137.796 71.6402ZM137.04 71.7357C137.04 71.3377 136.992 71.0538 136.897 70.8839C136.801 70.7141 136.631 70.6292 136.387 70.6292C136.223 70.6292 136.064 70.6796 135.91 70.7805C135.756 70.8813 135.613 71.0166 135.48 71.1865C135.352 71.3563 135.236 71.5553 135.13 71.7835C135.023 72.0064 134.933 72.2426 134.859 72.492C134.785 72.7415 134.726 72.9962 134.684 73.2563C134.647 73.5163 134.628 73.7631 134.628 73.9966C134.628 74.3946 134.676 74.6786 134.771 74.8484C134.867 75.0182 135.037 75.1032 135.281 75.1032C135.451 75.1032 135.61 75.0527 135.758 74.9519C135.912 74.8511 136.053 74.7157 136.18 74.5459C136.313 74.3761 136.432 74.1797 136.539 73.9568C136.645 73.7286 136.735 73.4898 136.809 73.2403C136.884 72.9909 136.939 72.7388 136.976 72.4841C137.019 72.224 137.04 71.9746 137.04 71.7357Z" fill="#F4F4F4"/>
<path d="M142.29 71.6402C142.29 71.9003 142.266 72.1842 142.218 72.492C142.17 72.7945 142.099 73.0997 142.003 73.4075C141.913 73.71 141.796 74.0019 141.653 74.2832C141.51 74.5645 141.34 74.8139 141.144 75.0315C140.952 75.2491 140.735 75.4242 140.491 75.5569C140.247 75.6843 139.979 75.748 139.687 75.748C139.236 75.748 138.901 75.61 138.684 75.334C138.471 75.0527 138.365 74.6388 138.365 74.0921C138.365 73.8321 138.389 73.5508 138.437 73.2483C138.485 72.9405 138.554 72.6353 138.644 72.3328C138.739 72.025 138.859 71.7304 139.002 71.4492C139.145 71.1679 139.313 70.9184 139.504 70.7008C139.7 70.4833 139.918 70.3108 140.156 70.1834C140.401 70.0507 140.671 69.9844 140.968 69.9844C141.42 69.9844 141.751 70.125 141.964 70.4063C142.181 70.6823 142.29 71.0936 142.29 71.6402ZM141.534 71.7357C141.534 71.3377 141.486 71.0538 141.39 70.8839C141.295 70.7141 141.125 70.6292 140.881 70.6292C140.716 70.6292 140.557 70.6796 140.403 70.7805C140.249 70.8813 140.106 71.0166 139.973 71.1865C139.846 71.3563 139.729 71.5553 139.623 71.7835C139.517 72.0064 139.427 72.2426 139.352 72.492C139.278 72.7415 139.22 72.9962 139.177 73.2563C139.14 73.5163 139.122 73.7631 139.122 73.9966C139.122 74.3946 139.169 74.6786 139.265 74.8484C139.36 75.0182 139.53 75.1032 139.774 75.1032C139.944 75.1032 140.103 75.0527 140.252 74.9519C140.406 74.8511 140.546 74.7157 140.674 74.5459C140.807 74.3761 140.926 74.1797 141.032 73.9568C141.138 73.7286 141.228 73.4898 141.303 73.2403C141.377 72.9909 141.433 72.7388 141.47 72.4841C141.512 72.224 141.534 71.9746 141.534 71.7357Z" fill="#F4F4F4"/>
</svg>
