<svg width="33" height="33" viewBox="0 0 33 33" fill="none" xmlns="http://www.w3.org/2000/svg">
<path d="M32.603 30.1882L23.3608 20.9461C25.1511 18.7348 26.229 15.9249 26.229 12.8645C26.229 5.77143 20.4575 0 13.3644 0C6.27137 0 0.5 5.77137 0.5 12.8644C0.5 19.9575 6.27144 25.7289 13.3645 25.7289C16.4249 25.7289 19.2348 24.6511 21.4461 22.8608L30.6882 32.103C30.9523 32.367 31.2989 32.4997 31.6456 32.4997C31.9923 32.4997 32.339 32.367 32.603 32.103C33.1325 31.5735 33.1325 30.7177 32.603 30.1882ZM13.3645 23.0206C7.7637 23.0206 3.20833 18.4652 3.20833 12.8644C3.20833 7.26363 7.7637 2.70827 13.3645 2.70827C18.9653 2.70827 23.5207 7.26363 23.5207 12.8644C23.5207 18.4652 18.9653 23.0206 13.3645 23.0206Z" fill="#050A30"/>
</svg>
