<svg width="52" height="62" viewBox="0 0 52 62" fill="none" xmlns="http://www.w3.org/2000/svg">
<path d="M44.5158 18.3668L48.2199 14.6725L44.5751 11.036L40.6126 14.988C36.9928 12.4295 32.7687 10.8526 28.354 10.4119V5.14169H33.5093V0H18.0435V5.14169H23.1988V10.4119C18.7841 10.8526 14.56 12.4295 10.9402 14.988L6.97768 11.036L3.3329 14.6725L7.03697 18.3668C3.57944 22.0179 1.26986 26.5991 0.393444 31.5446C-0.482975 36.4901 0.112151 41.5833 2.10533 46.1953C4.09851 50.8073 7.40244 54.736 11.6091 57.4963C15.8158 60.2566 20.741 61.7276 25.7764 61.7276C30.8118 61.7276 35.737 60.2566 39.9437 57.4963C44.1504 54.736 47.4543 50.8073 49.4475 46.1953C51.4406 41.5833 52.0358 36.4901 51.1594 31.5446C50.2829 26.5991 47.9734 22.0179 44.5158 18.3668ZM25.7764 56.5586C21.6979 56.5586 17.711 55.3524 14.3199 53.0925C10.9288 50.8326 8.28574 47.6205 6.72498 43.8624C5.16422 40.1043 4.75585 35.969 5.55152 31.9795C6.34719 27.9899 8.31116 24.3253 11.1951 21.4489C14.079 18.5726 17.7533 16.6138 21.7534 15.8203C25.7535 15.0267 29.8997 15.434 33.6678 16.9906C37.4358 18.5473 40.6563 21.1834 42.9222 24.5656C45.1881 27.9477 46.3975 31.9241 46.3975 35.9918C46.3914 41.4446 44.2168 46.6723 40.3509 50.528C36.4851 54.3837 31.2436 56.5525 25.7764 56.5586Z" fill="#F4F4F4"/>
<path d="M25.7761 20.5664V35.9915H10.3103C10.3103 39.0423 11.2174 42.0246 12.9168 44.5612C14.6162 47.0978 17.0316 49.0749 19.8576 50.2424C22.6836 51.4099 25.7933 51.7153 28.7934 51.1202C31.7934 50.525 34.5492 49.0559 36.7121 46.8987C38.8751 44.7414 40.348 41.9929 40.9448 39.0008C41.5415 36.0086 41.2353 32.9071 40.0647 30.0886C38.8941 27.27 36.9118 24.8609 34.3685 23.166C31.8251 21.4711 28.835 20.5664 25.7761 20.5664Z" fill="#F4F4F4"/>
</svg>
