<svg width="30" height="21" viewBox="0 0 30 21" fill="none" xmlns="http://www.w3.org/2000/svg">
<path d="M27.3287 0H3.38375C2.06199 0.00155642 0.990814 1.07273 0.989258 2.39449V17.7192C0.990814 19.041 2.06199 20.1122 3.38375 20.1137H27.3287C27.463 20.1143 27.5972 20.1025 27.7295 20.0788C28.8818 19.8859 29.7254 18.8876 29.7231 17.7192V2.39449C29.7216 1.07267 28.6504 0.00155642 27.3287 0ZM3.38375 19.1559C2.63936 19.1558 2.01829 18.5872 1.9528 17.8457L11.5011 11.6027L21.2112 19.1559H3.38375ZM28.7654 17.7192C28.7661 18.4221 28.257 19.0219 27.5633 19.1353C27.4859 19.1493 27.4073 19.1562 27.3287 19.1559H22.771L16.4261 14.218L22.1 9.68093L28.7654 13.6802V17.7192ZM28.7654 12.5634L22.3074 8.68865C22.1357 8.58539 21.9179 8.59994 21.7615 8.72505L15.6474 13.6146L11.8186 10.6368C11.6573 10.5115 11.4342 10.5022 11.2631 10.6138L1.94705 16.7049V2.39449C1.94705 1.60102 2.59027 0.957797 3.38375 0.957797H27.3287C28.1221 0.957797 28.7654 1.60102 28.7654 2.39449V12.5634Z" fill="#818181"/>
<path d="M15.3551 2.87109C13.7681 2.87109 12.4817 4.15753 12.4817 5.74448C12.4832 7.33077 13.7688 8.61632 15.3551 8.61787C16.942 8.61787 18.2285 7.33143 18.2285 5.74448C18.2285 4.15753 16.942 2.87109 15.3551 2.87109ZM15.3551 7.66008C14.2971 7.66008 13.4395 6.80243 13.4395 5.74448C13.4395 4.68654 14.2971 3.82889 15.3551 3.82889C16.413 3.82889 17.2707 4.68654 17.2707 5.74448C17.2707 6.80243 16.413 7.66008 15.3551 7.66008Z" fill="#818181"/>
</svg>
