<svg width="36" height="36" viewBox="0 0 36 36" fill="none" xmlns="http://www.w3.org/2000/svg">
<circle cx="18" cy="18" r="18" fill="white"/>
<path d="M17.9973 14.6652C16.1611 14.6652 14.6626 16.1638 14.6626 18C14.6626 19.8362 16.1611 21.3348 17.9973 21.3348C19.8335 21.3348 21.332 19.8362 21.332 18C21.332 16.1638 19.8335 14.6652 17.9973 14.6652ZM27.9989 18C27.9989 16.6191 28.0114 15.2506 27.9338 13.8722C27.8563 12.2711 27.4911 10.8502 26.3203 9.67938C25.147 8.50609 23.7286 8.14334 22.1275 8.06579C20.7466 7.98824 19.3782 8.00074 17.9998 8.00074C16.6189 8.00074 15.2505 7.98824 13.8721 8.06579C12.271 8.14334 10.8501 8.50859 9.67935 9.67938C8.50608 10.8527 8.14334 12.2711 8.06579 13.8722C7.98824 15.2531 8.00074 16.6216 8.00074 18C8.00074 19.3784 7.98824 20.7494 8.06579 22.1278C8.14334 23.7289 8.50858 25.1498 9.67935 26.3206C10.8526 27.4939 12.271 27.8567 13.8721 27.9342C15.253 28.0118 16.6214 27.9993 17.9998 27.9993C19.3807 27.9993 20.7491 28.0118 22.1275 27.9342C23.7286 27.8567 25.1495 27.4914 26.3203 26.3206C27.4936 25.1473 27.8563 23.7289 27.9338 22.1278C28.0139 20.7494 27.9989 19.3809 27.9989 18ZM17.9973 23.131C15.1579 23.131 12.8664 20.8394 12.8664 18C12.8664 15.1606 15.1579 12.869 17.9973 12.869C20.8367 12.869 23.1282 15.1606 23.1282 18C23.1282 20.8394 20.8367 23.131 17.9973 23.131ZM23.3383 13.8572C22.6754 13.8572 22.14 13.3218 22.14 12.6589C22.14 11.9959 22.6754 11.4606 23.3383 11.4606C24.0013 11.4606 24.5366 11.9959 24.5366 12.6589C24.5368 12.8163 24.5059 12.9722 24.4458 13.1177C24.3856 13.2632 24.2974 13.3954 24.1861 13.5067C24.0748 13.618 23.9426 13.7062 23.7971 13.7664C23.6516 13.8265 23.4957 13.8574 23.3383 13.8572Z" fill="#070917"/>
</svg>
