<svg width="37" height="36" viewBox="0 0 37 36" fill="none" xmlns="http://www.w3.org/2000/svg">
<circle cx="18.002" cy="18" r="18" fill="white"/>
<path d="M18.002 8C12.362 8 8.00195 12.13 8.00195 17.7C8.00195 20.61 9.19195 23.14 11.142 24.87C11.302 25 11.402 25.22 11.412 25.44L11.462 27.22C11.502 27.79 12.072 28.16 12.592 27.93L14.572 27.06C14.742 27 14.932 26.97 15.102 27C16.002 27.27 17.002 27.4 18.002 27.4C23.642 27.4 28.002 23.27 28.002 17.7C28.002 12.13 23.642 8 18.002 8ZM24.002 15.46L21.072 20.13C20.602 20.86 19.602 21.05 18.902 20.5L16.562 18.77C16.4581 18.6921 16.3318 18.65 16.202 18.65C16.0721 18.65 15.9458 18.6921 15.842 18.77L12.682 21.17C12.262 21.5 11.712 21 12.002 20.54L14.932 15.87C15.402 15.14 16.402 14.95 17.102 15.47L19.442 17.23C19.5458 17.3079 19.6721 17.35 19.802 17.35C19.9318 17.35 20.0581 17.3079 20.162 17.23L23.322 14.83C23.742 14.5 24.292 15 24.002 15.46Z" fill="#070917"/>
</svg>
