<svg width="69" height="80" viewBox="0 0 69 80" fill="none" xmlns="http://www.w3.org/2000/svg">
<path d="M57.6876 42.2772C57.6481 35.7198 60.6983 30.7777 66.8579 27.1336C63.4129 22.3261 58.2009 19.6819 51.3305 19.1723C44.8253 18.6723 37.7082 22.8645 35.1021 22.8645C32.3481 22.8645 26.0502 19.3454 21.0949 19.3454C10.8682 19.4992 0 27.2874 0 43.1329C0 47.8154 0.878541 52.6518 2.63562 57.6324C4.98498 64.1898 13.4545 80.2565 22.2893 79.9969C26.909 79.8911 30.1764 76.8047 36.188 76.8047C42.0219 76.8047 45.0425 79.9969 50.1953 79.9969C59.109 79.8719 66.7691 65.2667 69 58.69C57.0459 53.1999 57.6876 42.6137 57.6876 42.2772ZM47.3129 12.9514C52.3176 7.16318 51.8635 1.89416 51.7155 0C47.2931 0.24999 42.1798 2.93258 39.2678 6.23053C36.0597 9.76885 34.1742 14.1437 34.579 19.0762C39.3567 19.4319 43.7197 17.0378 47.3129 12.9514Z" fill="#F4F4F4"/>
</svg>
