<svg width="46" height="42" viewBox="0 0 46 42" fill="none" xmlns="http://www.w3.org/2000/svg">
<path d="M41.7347 4.44462C39.439 1.98252 36.2222 0.581623 32.852 0.57643C29.479 0.580325 26.2588 1.98048 23.9596 4.44305L23.1761 5.26925L22.3925 4.44305C17.8302 -0.456394 10.1512 -0.737761 5.24104 3.81447C5.02346 4.01627 4.81332 4.22586 4.61108 4.44305C-0.228595 9.65177 -0.228595 17.7016 4.61108 22.9103L22.0245 41.2336C22.6269 41.8682 23.6309 41.8954 24.2669 41.2943C24.2877 41.2746 24.308 41.2544 24.3277 41.2336L41.7348 22.9103C46.5741 17.7022 46.5741 9.65279 41.7347 4.44462ZM39.4395 20.7309H39.4379L23.1761 37.845L6.91269 20.7309C3.21546 16.751 3.21546 10.6009 6.91269 6.62091C10.2702 2.98984 15.9422 2.76217 19.5812 6.11233C19.7579 6.27499 19.9279 6.44461 20.0909 6.62091L22.0245 8.65632C22.6617 9.28805 23.6905 9.28805 24.3277 8.65632L26.2613 6.62248C29.6188 2.99142 35.2908 2.76375 38.9298 6.11391C39.1065 6.27657 39.2765 6.44619 39.4395 6.62248C43.1689 10.6087 43.1962 16.7701 39.4395 20.7309Z" fill="#050A30"/>
</svg>
