<svg width="87" height="77" viewBox="0 0 87 77" fill="none" xmlns="http://www.w3.org/2000/svg">
<path d="M24.7612 25.2656L28.5843 0H8.7L0.3915 21.6562C0.135333 22.4263 0 23.2251 0 24.0625C0 29.3755 5.55833 33.6875 12.4265 33.6875C18.7582 33.6875 23.9927 30.0107 24.7612 25.2656ZM43.5 33.6875C50.3633 33.6875 55.9265 29.3755 55.9265 24.0625C55.9265 23.8652 55.912 23.6679 55.9023 23.4802L53.4422 0H33.5578L31.0928 23.4609C31.0832 23.6583 31.0735 23.8556 31.0735 24.0625C31.0735 29.3755 36.6367 33.6875 43.5 33.6875ZM67.6667 38.7214V57.75H19.3333V38.7503C17.2163 39.5106 14.8867 39.9438 12.4265 39.9438C11.484 39.9438 10.5705 39.8331 9.66667 39.7079V70.2625C9.66667 73.9681 12.7068 77 16.4237 77H70.5667C74.2883 77 77.3333 73.9633 77.3333 70.2625V39.7127C76.4197 39.8524 75.4977 39.9312 74.5735 39.9486C72.2167 39.9462 69.8788 39.5308 67.6667 38.7214ZM86.6133 21.6562L78.2952 0H58.4157L62.234 25.2271C62.9783 29.9915 68.2128 33.6875 74.5735 33.6875C81.4368 33.6875 87 29.3755 87 24.0625C87 23.2251 86.8647 22.4263 86.6133 21.6562Z" fill="white"/>
</svg>
