<svg width="87" height="61" viewBox="0 0 87 61" fill="none" xmlns="http://www.w3.org/2000/svg">
<path d="M87 17.4286H0V8.71429C0 6.40311 0.916604 4.1866 2.54817 2.55235C4.17974 0.918109 6.39262 0 8.7 0H78.3C80.6074 0 82.8203 0.918109 84.4518 2.55235C86.0834 4.1866 87 6.40311 87 8.71429V17.4286ZM87 30.5V52.2857C87 54.5969 86.0834 56.8134 84.4518 58.4476C82.8203 60.0819 80.6074 61 78.3 61H8.7C6.39262 61 4.17974 60.0819 2.54817 58.4476C0.916604 56.8134 0 54.5969 0 52.2857V30.5H87ZM17.4 39.2143C16.2463 39.2143 15.1399 39.6733 14.3241 40.4905C13.5083 41.3076 13.05 42.4158 13.05 43.5714C13.05 44.727 13.5083 45.8353 14.3241 46.6524C15.1399 47.4695 16.2463 47.9286 17.4 47.9286H21.75C22.9037 47.9286 24.0101 47.4695 24.8259 46.6524C25.6417 45.8353 26.1 44.727 26.1 43.5714C26.1 42.4158 25.6417 41.3076 24.8259 40.4905C24.0101 39.6733 22.9037 39.2143 21.75 39.2143H17.4ZM39.15 39.2143C37.9963 39.2143 36.8899 39.6733 36.0741 40.4905C35.2583 41.3076 34.8 42.4158 34.8 43.5714C34.8 44.727 35.2583 45.8353 36.0741 46.6524C36.8899 47.4695 37.9963 47.9286 39.15 47.9286H60.9C62.0537 47.9286 63.1601 47.4695 63.9759 46.6524C64.7917 45.8353 65.25 44.727 65.25 43.5714C65.25 42.4158 64.7917 41.3076 63.9759 40.4905C63.1601 39.6733 62.0537 39.2143 60.9 39.2143H39.15Z" fill="white"/>
</svg>
