<svg width="64" height="75" viewBox="0 0 64 75" fill="none" xmlns="http://www.w3.org/2000/svg">
<path d="M32 75L15.5307 66.1795C10.8356 63.6705 6.90926 59.9246 4.17314 55.3439C1.43701 50.7632 -0.00563483 45.5205 1.65402e-05 40.1786V5.35714C0.00142848 3.93678 0.563785 2.57499 1.56367 1.57064C2.56356 0.566285 3.91929 0.00141824 5.33335 0H58.6666C60.0807 0.00141824 61.4364 0.566285 62.4363 1.57064C63.4362 2.57499 63.9986 3.93678 64 5.35714V40.1786C64.0056 45.5205 62.563 50.7632 59.8269 55.3439C57.0907 59.9246 53.1644 63.6705 48.4693 66.1795L32 75ZM5.33335 5.35714V40.1786C5.32892 44.5495 6.50962 48.8391 8.74871 52.5869C10.9878 56.3348 14.2007 59.3994 18.0427 61.4518L32 68.9277L45.9573 61.4545C49.7996 59.4019 53.0128 56.3368 55.252 52.5885C57.4911 48.8401 58.6716 44.5499 58.6666 40.1786V5.35714H5.33335Z" fill="white"/>
<path d="M32 62V11H53V39.5861C52.9998 42.9395 52.0963 46.23 50.3857 49.1063C48.6752 51.9826 46.2218 54.3368 43.2875 55.9177L32 62Z" fill="white"/>
</svg>
