<svg width="50" height="47" viewBox="0 0 50 47" fill="none" xmlns="http://www.w3.org/2000/svg">
<path d="M37.1653 35.2695C34.0311 35.2695 31.4468 37.7933 31.4468 40.9755C31.4468 44.1029 33.9761 46.6815 37.1653 46.6815C40.2996 46.6815 42.8839 44.1577 42.8839 40.9755C42.8289 37.8482 40.2996 35.2695 37.1653 35.2695Z" fill="#F4F4F4"/>
<path d="M47.2278 8.05707C47.1179 8.05707 46.9529 8.0022 46.7879 8.0022H12.1466L11.5968 4.32621C11.2669 1.91213 9.17739 0.101562 6.70301 0.101562H2.24913C1.03943 0.101562 0.0496826 1.08914 0.0496826 2.29618C0.0496826 3.50323 1.03943 4.49081 2.24913 4.49081H6.70301C6.97794 4.49081 7.19789 4.71027 7.25287 4.9846L10.662 28.1379C11.1019 31.0457 13.6313 33.2404 16.6005 33.2404H39.4748C42.3341 33.2404 44.8084 31.2103 45.4133 28.4122L48.9874 10.5809C49.2073 9.42871 48.4375 8.27653 47.2278 8.05707Z" fill="#F4F4F4"/>
<path d="M23.144 40.7012C23.034 37.6836 20.5046 35.2695 17.4804 35.2695C14.2912 35.4341 11.8718 38.0677 11.9818 41.195C12.0917 44.2126 14.5661 46.6267 17.5904 46.6267H17.7003C20.8345 46.4621 23.3089 43.8285 23.144 40.7012Z" fill="#F4F4F4"/>
</svg>
