<svg width="46" height="42" viewBox="0 0 46 42" fill="none" xmlns="http://www.w3.org/2000/svg">
<path d="M41.7347 3.86845C39.439 1.40635 36.2222 0.00545122 32.852 0.000257894C29.479 0.00415289 26.2588 1.40431 23.9596 3.86688L23.1761 4.69308L22.3925 3.86688C17.8302 -1.03257 10.1512 -1.31393 5.24104 3.2383C5.02346 3.4401 4.81332 3.64968 4.61108 3.86688C-0.228595 9.0756 -0.228595 17.1254 4.61108 22.3342L22.0245 40.6574C22.6269 41.292 23.6309 41.3192 24.2669 40.7181C24.2877 40.6984 24.308 40.6782 24.3277 40.6574L41.7348 22.3342C46.5741 17.126 46.5741 9.07662 41.7347 3.86845Z" fill="#050A30"/>
<path d="M41.7347 3.86845C39.439 1.40635 36.2222 0.00545122 32.852 0.000257894C29.479 0.00415289 26.2588 1.40431 23.9596 3.86688L23.1761 4.69308L22.3925 3.86688C17.8302 -1.03257 10.1512 -1.31393 5.24104 3.2383C5.02346 3.4401 4.81332 3.64968 4.61108 3.86688C-0.228595 9.0756 -0.228595 17.1254 4.61108 22.3342L22.0245 40.6574C22.6269 41.292 23.6309 41.3192 24.2669 40.7181C24.2877 40.6984 24.308 40.6782 24.3277 40.6574L41.7348 22.3342C46.5741 17.126 46.5741 9.07662 41.7347 3.86845Z" stroke="black"/>
</svg>
