<svg width="34" height="31" viewBox="0 0 34 31" fill="none" xmlns="http://www.w3.org/2000/svg">
<path d="M33.4529 11.6631C33.2336 11.0109 32.6317 10.5477 31.9197 10.4861L22.248 9.64202L18.4236 1.03865C18.1416 0.40814 17.4994 0 16.7858 0C16.0723 0 15.43 0.40814 15.148 1.04013L11.3236 9.64202L1.65036 10.4861C0.939624 10.5492 0.33933 11.0109 0.118694 11.6631C-0.101943 12.3152 0.10182 13.0305 0.639477 13.4814L7.95013 19.6435L5.79439 28.7703C5.63664 29.4413 5.90765 30.135 6.48697 30.5375C6.79837 30.7537 7.16269 30.8638 7.53008 30.8638C7.84684 30.8638 8.16105 30.7817 8.44304 30.6196L16.7858 25.8273L25.1255 30.6196C25.7358 30.9724 26.505 30.9402 27.0831 30.5375C27.6627 30.1338 27.9334 29.4399 27.7757 28.7703L25.6199 19.6435L32.9306 13.4826C33.4683 13.0305 33.6735 12.3164 33.4529 11.6631Z" fill="#FFC107"/>
</svg>
