<svg width="27" height="21" viewBox="0 0 27 21" fill="none" xmlns="http://www.w3.org/2000/svg">
<path d="M23.3398 0H3.52521C2.02446 0 0.803711 0.975406 0.803711 2.17453V18.0068C0.803711 19.2057 2.02446 20.1813 3.52521 20.1813H23.3398C24.8403 20.1813 26.0613 19.2057 26.0613 18.0068V2.17453C26.0613 0.975406 24.8403 0 23.3398 0V0ZM24.5813 18.0068C24.5813 18.5538 24.0244 18.9988 23.3398 18.9988H3.52521C2.84055 18.9988 2.28365 18.5538 2.28365 18.0068V2.17453C2.28365 1.62747 2.84055 1.1825 3.52521 1.1825H23.3398C24.0244 1.1825 24.5813 1.62747 24.5813 2.17453V18.0068Z" fill="#818181"/>
<path d="M8.4695 7.55991C9.31491 7.55991 9.47402 8.07717 9.50401 8.5446C9.51392 8.85292 9.80217 8.95231 10.1504 8.95231C10.5782 8.95231 10.797 8.83309 10.797 8.33567C10.797 7.14205 9.79226 6.42578 8.41969 6.42578C7.15642 6.42578 6.13184 7.04242 6.13184 8.70372V11.4788C6.13184 13.1399 7.14651 13.7565 8.45959 13.7565C9.77243 13.7565 10.797 13.1399 10.797 11.4788V10.2951C10.797 10.0763 10.6478 9.87727 10.3893 9.87727H8.69827C8.43976 9.87727 8.30047 10.136 8.30047 10.3846C8.30047 10.6434 8.43976 10.8919 8.69827 10.8919H9.50401V11.4788C9.50401 12.2546 9.10622 12.6226 8.45959 12.6226C7.80305 12.6226 7.42509 12.2546 7.42509 11.4788V8.70348C7.42509 7.92796 7.80305 7.55991 8.4695 7.55991Z" fill="#818181"/>
<path d="M13.4628 6.42578C13.1346 6.42578 12.8164 6.545 12.8164 6.82357V13.2889C12.8164 13.5575 13.1349 13.6968 13.4628 13.6968C13.7813 13.6968 14.1094 13.5575 14.1094 13.2889V6.82357C14.1094 6.545 13.7813 6.42578 13.4628 6.42578Z" fill="#818181"/>
<path d="M20.3343 6.42578H16.8627C16.5745 6.42578 16.2959 6.56483 16.2959 6.83349V13.2889C16.2959 13.5575 16.6141 13.6968 16.9423 13.6968C17.2608 13.6968 17.5889 13.5575 17.5889 13.2889V10.5636H19.1107C19.3893 10.5636 19.5085 10.2949 19.5085 10.0661C19.5085 9.79771 19.3692 9.54912 19.1107 9.54912H17.5889V7.55967H20.3343C20.5928 7.55967 20.7321 7.29101 20.7321 6.98269C20.7321 6.71427 20.6126 6.42578 20.3343 6.42578Z" fill="#818181"/>
</svg>
