<svg width="16" height="21" viewBox="0 0 16 21" fill="none" xmlns="http://www.w3.org/2000/svg">
<path d="M15.019 9.62271C15.019 9.28951 14.749 9.01953 14.4158 9.01953C14.0827 9.01953 13.8127 9.28951 13.8127 9.62271C13.8127 12.9181 11.1316 15.5992 7.83617 15.5992C4.54074 15.5992 1.85967 12.9181 1.85967 9.62271C1.85967 9.28951 1.58961 9.01953 1.2565 9.01953C0.923382 9.01953 0.65332 9.28951 0.65332 9.62271C0.65332 13.3802 3.55355 16.4726 7.23299 16.78V18.9141H4.54629C4.21318 18.9141 3.94312 19.1841 3.94312 19.5173C3.94312 19.8505 4.21318 20.1204 4.54629 20.1204H11.126C11.4591 20.1204 11.7291 19.8505 11.7291 19.5173C11.7291 19.1841 11.4591 18.9141 11.126 18.9141H8.43926V16.78C12.1187 16.4726 15.019 13.3802 15.019 9.62271Z" fill="#818181"/>
<path d="M7.83584 13.5163C9.9825 13.5163 11.7289 11.7699 11.7289 9.62329V3.89297C11.7289 1.74639 9.9825 0 7.83584 0C5.68926 0 3.94287 1.74639 3.94287 3.89297V9.62329C3.94287 11.77 5.68926 13.5163 7.83584 13.5163ZM5.14922 3.89297C5.14922 2.41157 6.35444 1.20635 7.83584 1.20635C9.31732 1.20635 10.5225 2.41157 10.5225 3.89297V9.62329C10.5225 11.1047 9.31732 12.3099 7.83584 12.3099C6.35444 12.3099 5.14922 11.1047 5.14922 9.62329V3.89297Z" fill="#818181"/>
</svg>
