<svg width="30" height="21" viewBox="0 0 30 21" fill="none" xmlns="http://www.w3.org/2000/svg">
<path d="M27.674 9.00762V9.93364C26.6679 9.12566 25.3918 8.64062 24.0039 8.64062C20.766 8.64062 18.1318 11.2749 18.1318 14.5127C18.1318 17.7506 20.7661 20.3848 24.0039 20.3848C25.3918 20.3848 26.6679 19.8998 27.674 19.0918V20.0178H29.876V9.00762H27.674ZM24.0039 18.1828C21.9802 18.1828 20.3338 16.5363 20.3338 14.5127C20.3338 12.4889 21.9802 10.8426 24.0039 10.8426C26.0275 10.8426 27.6739 12.4891 27.6739 14.5127C27.674 16.5364 26.0276 18.1828 24.0039 18.1828Z" fill="#818181"/>
<path d="M8.95403 0L0 20.3503H2.40567L5.4739 13.3771H12.4341L15.5023 20.3503H17.908L8.95403 0ZM6.44279 11.1751L8.95397 5.46777L11.4652 11.1751H6.44279Z" fill="#818181"/>
</svg>
