<svg width="27" height="34" viewBox="0 0 27 34" fill="none" xmlns="http://www.w3.org/2000/svg">
<path d="M13.1004 0C5.87668 0 0 5.87669 0 13.1004C0 17.1633 2.10185 21.8822 6.24779 27.1256C9.28174 30.9621 12.2719 33.6143 12.3973 33.7252C12.7964 34.0769 13.3989 34.0817 13.8034 33.7252C13.9289 33.6143 16.919 30.9621 19.953 27.1256C24.0989 21.8822 26.2008 17.1633 26.2008 13.1004C26.2008 5.87669 20.3241 0 13.1004 0V0ZM7.25822 18.5887V14.0326C7.25822 13.749 6.92555 13.596 6.71026 13.7806L6.35601 14.0843C5.91054 14.466 5.24002 14.4142 4.85829 13.9687C4.47656 13.5233 4.52834 12.8528 4.9738 12.471L12.4093 6.09776C12.8069 5.75719 13.3938 5.75719 13.7915 6.09776L21.227 12.471C21.6724 12.8528 21.7242 13.5233 21.3425 13.9687C20.9584 14.4159 20.2884 14.4645 19.8448 14.0843L19.4905 13.7806C19.2752 13.596 18.9426 13.749 18.9426 14.0326V18.5887C18.9426 19.1754 18.467 19.6509 17.8803 19.6509H8.32043C7.73376 19.6509 7.25822 19.1754 7.25822 18.5887Z" fill="#F4F4F4"/>
<path d="M9.38287 11.6403V17.1923C9.38287 17.3756 9.53152 17.5243 9.71481 17.5243H16.4864C16.6697 17.5243 16.8184 17.3756 16.8184 17.1923V11.6403C16.8184 11.5433 16.776 11.4513 16.7024 11.3883L13.3166 8.48616C13.1924 8.37961 13.0089 8.37961 12.8846 8.48616L9.49879 11.3883C9.42523 11.4513 9.38287 11.5433 9.38287 11.6403Z" fill="#F4F4F4"/>
</svg>
