<svg width="36" height="28" viewBox="0 0 36 28" fill="none" xmlns="http://www.w3.org/2000/svg">
<path d="M23.6832 17.9449C23.6832 17.2592 23.127 16.7031 22.4413 16.7031C21.7556 16.7031 21.1995 17.2592 21.1995 17.9449V18.8742H23.6832V17.9449Z" fill="#F4F4F4"/>
<path d="M26.6852 27.6554C27.8664 27.6464 28.8213 26.6894 28.8279 25.5079V12.1559C28.822 10.9734 27.8674 10.015 26.6852 10.0039H2.12883C0.949034 10.016 -0.000692599 10.9762 3.78988e-07 12.1559V25.5079C3.78988e-07 26.6867 0.950073 27.6451 2.12883 27.6554H26.6852ZM20.1352 17.9447C20.1352 16.671 21.1677 15.6385 22.4414 15.6385C23.7151 15.6385 24.7476 16.671 24.7476 17.9447V19.4232C24.7487 19.5618 24.6936 19.6949 24.5945 19.7919C24.4957 19.8889 24.3616 19.9419 24.2234 19.9384H20.6754C20.535 19.9426 20.3992 19.8903 20.2977 19.7936C20.1962 19.6966 20.1376 19.5635 20.1352 19.4232V17.9447ZM10.859 21.7125H17.9551C18.2499 21.7149 18.4876 21.955 18.4873 22.2499C18.4869 24.5034 16.6595 26.3301 14.4063 26.3294C12.1528 26.3291 10.3264 24.502 10.3268 22.2485C10.3264 21.954 10.5641 21.7142 10.859 21.7125ZM4.08026 17.9447C4.08026 16.671 5.11279 15.6385 6.38649 15.6385C7.66018 15.6385 8.69272 16.671 8.69272 17.9447V19.4232C8.68094 19.7181 8.43355 19.9478 8.13868 19.9384H4.59063C4.45342 19.9412 4.32141 19.8879 4.22474 19.7905C4.12807 19.6931 4.0761 19.5604 4.08026 19.4232V17.9447Z" fill="#F4F4F4"/>
<path d="M14.4071 25.261C15.8679 25.2624 17.1194 24.2156 17.3758 22.7773H11.438C11.6944 24.2156 12.9459 25.2624 14.4071 25.261Z" fill="#F4F4F4"/>
<path d="M7.62835 17.9449C7.62835 17.2592 7.07223 16.7031 6.38653 16.7031C5.70083 16.7031 5.14471 17.2592 5.14471 17.9449V18.8742H7.62835V17.9449Z" fill="#F4F4F4"/>
<path d="M29.8923 13.791V23.8756C32.4719 23.6029 34.43 21.4273 34.43 18.8331C34.43 16.2393 32.4719 14.0637 29.8923 13.791Z" fill="#F4F4F4"/>
<path d="M9.04749 6.84129V8.94067H19.7803V6.84129C19.7859 6.64102 19.6331 6.47193 19.4335 6.45703H9.38046C9.18504 6.45703 9.04749 6.64552 9.04749 6.84129Z" fill="#F4F4F4"/>
<path d="M32.1473 0C30.3033 0.000693022 28.8061 1.4899 28.7953 3.33357C28.7953 4.99014 30.0697 6.36812 31.5777 6.62383V13.9964H32.6421V6.62383C34.3586 6.35703 35.5824 4.81585 35.4528 3.08341C35.3232 1.35096 33.8846 0.00900876 32.1473 0Z" fill="#F4F4F4"/>
<path d="M14.3695 2.82031C14.0757 2.82031 13.8373 3.05835 13.8373 3.35252V5.92485H14.9018V3.35252C14.9018 3.05835 14.6634 2.82031 14.3695 2.82031Z" fill="#F4F4F4"/>
</svg>
