<svg width="21" height="21" viewBox="0 0 21 21" fill="none" xmlns="http://www.w3.org/2000/svg">
<path d="M14.3495 2.54997C13.9067 2.35649 13.3909 2.55866 13.1974 3.00151C13.0039 3.44436 13.2061 3.96018 13.6489 4.15365C16.4959 5.39742 18.3751 8.21328 18.3751 11.3739C18.3751 15.723 14.8489 19.249 10.5 19.249C6.15064 19.249 2.62499 15.7233 2.62499 11.3739C2.62499 8.21398 4.50352 5.39811 7.3497 4.15353C7.79246 3.95993 7.99447 3.44403 7.80083 3.00126C7.60724 2.5585 7.09134 2.35649 6.64857 2.55013C3.17087 4.0708 0.875 7.51228 0.875 11.3739C0.875 16.6898 5.18418 20.9989 10.5001 20.9989C15.8154 20.9989 20.1252 16.6895 20.1252 11.3739C20.1252 7.51138 17.8284 4.06973 14.3495 2.54997Z" fill="#11163A"/>
<path d="M10.4996 9.62509C10.9828 9.62509 11.3746 9.23335 11.3746 8.75009V0.875034C11.3746 0.391743 10.9828 0 10.4996 0C10.0163 0 9.62457 0.391743 9.62457 0.874993V8.75005C9.62457 9.2333 10.0163 9.62509 10.4996 9.62509Z" fill="#11163A"/>
</svg>
