<svg width="24" height="30" viewBox="0 0 24 30" fill="none" xmlns="http://www.w3.org/2000/svg">
<path d="M22.8951 0H0.857281C0.383833 0 0 0.383833 0 0.857282V28.4046C0 28.878 0.383833 29.2619 0.857281 29.2619H22.8951C23.3685 29.2619 23.7524 28.878 23.7524 28.4046V0.857282C23.7524 0.383833 23.3685 0 22.8951 0ZM4.84233 14.0249C5.00184 13.8654 5.22296 13.7734 5.44877 13.7734C5.67389 13.7734 5.89507 13.8654 6.05458 14.0249C6.21398 14.1844 6.30542 14.4055 6.30542 14.6313C6.30542 14.8564 6.21398 15.0776 6.05458 15.2371C5.89507 15.3965 5.67395 15.488 5.44877 15.488C5.22296 15.488 5.00184 15.3965 4.84233 15.2371C4.68293 15.0776 4.59148 14.8565 4.59148 14.6313C4.59154 14.4056 4.68293 14.1844 4.84233 14.0249ZM6.05458 24.4197C5.89507 24.5792 5.67395 24.6706 5.44814 24.6706C5.22244 24.6706 5.00189 24.5792 4.84233 24.4197C4.68293 24.2603 4.59148 24.0391 4.59148 23.8133C4.59148 23.5876 4.68293 23.3665 4.84233 23.207C5.00184 23.0476 5.22239 22.9561 5.44814 22.9561C5.67395 22.9561 5.89507 23.0476 6.05458 23.207C6.21398 23.367 6.30542 23.5876 6.30542 23.8133C6.30542 24.0391 6.21398 24.2598 6.05458 24.4197ZM6.05458 19.8281C5.89507 19.9876 5.67395 20.0796 5.44814 20.0796C5.22302 20.0796 5.00189 19.9876 4.84233 19.8281C4.68293 19.6687 4.59148 19.4481 4.59148 19.2223C4.59148 18.9966 4.68293 18.7754 4.84233 18.6159C5.00184 18.4565 5.22296 18.365 5.44814 18.365C5.67395 18.365 5.89507 18.4565 6.05458 18.6159C6.21398 18.7754 6.30605 18.9966 6.30605 19.2223C6.3061 19.4481 6.21398 19.6687 6.05458 19.8281ZM9.36809 5.23616C9.78421 4.82021 10.3372 4.5912 10.9253 4.5912C11.2599 4.5912 11.5831 4.66533 11.8762 4.80586C12.1692 4.66538 12.4925 4.5912 12.827 4.5912C13.4152 4.5912 13.9682 4.82026 14.3841 5.23616C15.2426 6.09464 15.2426 7.49167 14.3841 8.35026L12.4824 10.252C12.3149 10.4194 12.0956 10.5031 11.8761 10.5031C11.6567 10.5031 11.4373 10.4194 11.27 10.252L9.36826 8.35026C8.50955 7.49178 8.50955 6.09481 9.36809 5.23616ZM18.3039 24.6706H10.9579C10.4844 24.6706 10.1007 24.2868 10.1007 23.8133C10.1007 23.3399 10.4844 22.9561 10.9579 22.9561H18.3039C18.7773 22.9561 19.1612 23.3399 19.1612 23.8133C19.1612 24.2868 18.7773 24.6706 18.3039 24.6706ZM18.3039 20.0794H10.9579C10.4844 20.0794 10.1007 19.6955 10.1007 19.2221C10.1007 18.7486 10.4844 18.3648 10.9579 18.3648H18.3039C18.7773 18.3648 19.1612 18.7486 19.1612 19.2221C19.1612 19.6955 18.7773 20.0794 18.3039 20.0794ZM18.3039 15.4882H10.9579C10.4844 15.4882 10.1007 15.1044 10.1007 14.6309C10.1007 14.1575 10.4844 13.7737 10.9579 13.7737H18.3039C18.7773 13.7737 19.1612 14.1575 19.1612 14.6309C19.1612 15.1044 18.7773 15.4882 18.3039 15.4882Z" fill="#F4F4F4"/>
</svg>
