<svg width="35" height="24" viewBox="0 0 35 24" fill="none" xmlns="http://www.w3.org/2000/svg">
<path d="M34.1404 5.53448V3.73411C34.1404 1.67181 32.4686 0 30.4063 0H3.73411C1.67181 0 0 1.67181 0 3.73411V5.53448C0 5.71859 0.149298 5.86788 0.333402 5.86788H33.807C33.9911 5.86788 34.1404 5.71859 34.1404 5.53448Z" fill="#F4F4F4"/>
<path d="M0 8.33731V19.7397C0 21.802 1.67181 23.4738 3.73411 23.4738H30.4063C32.4686 23.4738 34.1404 21.802 34.1404 19.7397V8.33731C34.1404 8.1532 33.9911 8.00391 33.807 8.00391H0.333402C0.149298 8.00391 0 8.1532 0 8.33731ZM8.5351 17.0725C8.5351 17.6616 8.0574 18.1393 7.46821 18.1393H6.40133C5.81214 18.1393 5.33444 17.6616 5.33444 17.0725V16.0056C5.33444 15.4164 5.81214 14.9387 6.40133 14.9387H7.46821C8.0574 14.9387 8.5351 15.4164 8.5351 16.0056V17.0725Z" fill="#F4F4F4"/>
</svg>
