<svg width="30" height="30" viewBox="0 0 30 30" fill="none" xmlns="http://www.w3.org/2000/svg">
<path d="M15 0.65625C6.72903 0.65625 4.03162e-05 6.8185 4.03162e-05 14.3931C4.03162e-05 17.0407 0.823039 19.6055 2.38404 21.8232C2.08854 25.149 1.29654 27.6181 0.14654 28.7878C-0.00545967 28.9424 -0.0434596 29.179 0.0525402 29.3744C0.13754 29.5489 0.31254 29.6562 0.50004 29.6562C0.52304 29.6562 0.54604 29.6547 0.56954 29.6512C0.772039 29.6222 5.47603 28.9333 8.87853 26.9348C10.8105 27.728 12.8685 28.1299 15 28.1299C23.271 28.1299 30 21.9677 30 14.3931C30 6.8185 23.271 0.65625 15 0.65625ZM8.00003 16.4282C6.89703 16.4282 6.00003 15.5154 6.00003 14.3931C6.00003 13.2707 6.89703 12.358 8.00003 12.358C9.10303 12.358 10 13.2707 10 14.3931C10 15.5154 9.10303 16.4282 8.00003 16.4282ZM15 16.4282C13.897 16.4282 13 15.5154 13 14.3931C13 13.2707 13.897 12.358 15 12.358C16.103 12.358 17 13.2707 17 14.3931C17 15.5154 16.103 16.4282 15 16.4282ZM22 16.4282C20.897 16.4282 20 15.5154 20 14.3931C20 13.2707 20.897 12.358 22 12.358C23.103 12.358 24 13.2707 24 14.3931C24 15.5154 23.103 16.4282 22 16.4282Z" fill="#F4F4F4"/>
</svg>
