<svg width="27" height="33" viewBox="0 0 27 33" fill="none" xmlns="http://www.w3.org/2000/svg">
<path d="M6.89944 10.0415C7.0106 10.5529 7.18105 10.8839 7.37991 11.0902C7.85297 14.3831 10.8087 17.1893 13.1826 17.072C16.2025 16.9238 18.343 13.6692 18.8235 11.0902C19.0224 10.8852 19.2138 10.4467 19.3287 9.93162C19.4571 9.33999 19.5955 8.44822 19.2397 7.97639C19.2188 7.95169 19.0829 7.82694 19.0594 7.80594C19.3991 6.58068 20.1451 4.39448 18.2875 2.42937C17.2808 1.36467 15.8826 0.829857 14.6191 0.407439C10.889 -0.83882 8.25563 0.908907 7.04025 3.8152C6.95255 4.02147 6.38562 5.32701 7.07236 7.80594C7.00566 7.85041 6.94514 7.90722 6.8945 7.97639C6.53754 8.44698 6.76975 9.44992 6.89944 10.0415Z" fill="#F4F4F4"/>
<path d="M26.1912 28.1508C26.0874 25.8843 25.959 22.2925 23.979 19.3541C23.979 19.3541 23.4146 18.5847 22.0757 18.0733C22.0757 18.0733 19.1682 17.1877 17.8293 16.2305L17.2179 16.6492L17.2858 20.6239L13.615 30.4235C13.5347 30.6384 13.3296 30.7804 13.1011 30.7804C12.8726 30.7804 12.6676 30.6384 12.5873 30.4235L8.9177 20.6239C8.9177 20.6239 8.98564 16.6615 8.9844 16.6492C8.99305 16.6825 8.37177 16.2305 8.37177 16.2305C7.03535 17.1877 4.12659 18.0733 4.12659 18.0733C2.78769 18.5847 2.22323 19.3541 2.22323 19.3541C0.244535 22.2925 0.11361 25.8843 0.00985778 28.1508C-0.0617805 29.717 0.266767 30.3012 0.679305 30.468C5.80021 32.5232 20.3984 32.5232 25.5205 30.468C25.9355 30.3024 26.2616 29.717 26.1912 28.1508Z" fill="#F4F4F4"/>
<path d="M13.2321 18.3395L13.0666 18.3432C12.533 18.3432 11.9945 18.2394 11.4658 18.0566L12.9208 20.2836L11.6153 21.5434L12.9591 29.704C12.9702 29.7744 13.0307 29.8251 13.1024 29.8251C13.1728 29.8251 13.2333 29.7744 13.2457 29.704L14.5895 21.5434L13.2827 20.2836L14.7167 18.09C14.2486 18.2271 13.7533 18.3185 13.2321 18.3395Z" fill="#F4F4F4"/>
</svg>
